<svg version="1.2" xmlns="http://www.w3.org/2000/svg" viewBox="0 0 410 374" width="360" height="328">
	<title>0ae69ec8c2b12ce9b6bc85a0dcdeb9fe</title>
	<style>
		.s0 { opacity: 1;fill: #c69472 } 
		.s1 { opacity: 1;fill: #453319 } 
		.s2 { opacity: 1;fill: #5c3e1e } 
		.s3 { opacity: 1;fill: #6b5a3b } 
		.s4 { opacity: 1;fill: #885b3a } 
		.s5 { opacity: 1;fill: #b38d6a } 
		.s6 { opacity: 1;fill: #764523 } 
		.s7 { opacity: 1;fill: #24241b } 
		.s8 { opacity: 1;fill: #567b92 } 
		.s9 { opacity: 1;fill: #ac6a4c } 
		.s10 { opacity: 1;fill: #4a6b63 } 
		.s11 { opacity: 1;fill: #446d84 } 
		.s12 { opacity: 1;fill: #acb5ae } 
		.s13 { fill: #dad3c1 } 
		.s14 { opacity: 1;fill: #7f8a73 } 
		.s15 { opacity: .3;fill: #ccccb6 } 
		.s16 { opacity: 1;fill: #273a9e } 
		.s17 { fill: #c79451 } 
	</style>
	<g id="Background">
		<path id="Path 0" class="s0" d="m345.2 78c1 0 1.8 0.5 1.8 1 0 0.5 1.4 2.3 6 7v13c0 7.2-0.5 16.3-1.1 20.3-0.6 3.9-1.4 9.4-1.9 12.2-0.5 2.8-1.7 9.1-2.6 14-0.9 4.9-2.1 11.7-2.5 15-0.5 3.3-0.9 10.1-1 15-0.1 5.9-0.4 8.1-1.7 4l-0.1 2.5c-0.1 1.4-0.6 3.2-1.1 4-0.5 0.8-1 1.1-1 0.5 0-0.6-1.3-1.1-3-1.3-2.1-0.1-3 0.2-3 1.3 0 0.8-1.2 2.6-2.7 3.9-2.2 1.9-3.1 2.2-4.1 1.3-1-0.9-1.3-0.8-1.2 0.6 0 0.9-0.4 1.7-1 1.7-0.6 0-0.8 0.9-0.5 2 0.3 1.1 0.2 2-0.2 2-0.5 0-1.6-0.8-2.6-1.8-1.4-1.4-2-1.5-3-0.4-0.6 0.7-1.2 2.5-1.2 4 0 2.4-0.4 2.7-3.2 2.7-1.8 0-3.3 0.2-3.3 0.5 0 0.3 0.5 1.1 1.2 1.7 0.7 0.7 1 1.6 0.6 2-0.4 0.5-1.5 0.1-2.3-0.7-1.4-1.3-1.6-1.3-1.5 0.3 0 0.9 0.8 2.3 1.9 3 1.4 0.9 1.6 1.5 0.7 2.3-0.6 0.6-1.7 1-2.3 0.8-0.7-0.2-1.3 0-1.3 0.6 0 0.6 0.9 1.4 2 2 1.1 0.6 2 1.7 2 2.5 0 0.8-0.9 1.7-2 2-1.1 0.3-2.4 0.3-3 0-0.6-0.3-1.2 0.1-1.4 0.8-0.3 0.6-0.5 0.3-0.5-0.8 0-1.8-0.2-1.8-1.6-0.5-0.9 0.8-1.6 2.1-1.5 2.8 0 0.7-0.5 0.9-1.2 0.5-0.7-0.4-1.7-0.8-2.3-0.8-0.6-0.1-0.9-0.6-0.7-1.3 0.1-0.7-0.5-1.2-1.3-1.2-0.8 0-1.5 0.7-1.5 1.5 0 1.1-0.7 1.3-2.7 0.9-1.6-0.4-3.1-0.8-3.5-1-0.5-0.2-0.6-4.8-0.4-10.2 0.2-6.2 0.7-9.8 1.5-10 0.7-0.1 0.8-0.7 0.1-1.7-0.8-1.1-0.5-1.6 1-2 1.1-0.3 1.8-0.9 1.5-1.5-0.3-0.6 0.2-1 1-1 0.8 0 1.3 0.4 1 1-0.3 0.6-0.1 1.2 0.5 1.5 0.6 0.3 1-0.4 1-1.5 0-1.4-0.8-2.2-2.7-2.5-1.6-0.3-3.2-0.1-3.8 0.5-0.5 0.5-1.3 1-1.7 1-0.4 0-0.8-2-0.8-4.5 0-3 1.2-7.3 3.6-12.8 1.9-4.5 4-9.5 4.5-11.2 0.6-1.7 1.4-5 1.9-7.5 0.5-2.5 1.5-7 2.3-10 0.9-3.4 2.1-5.9 3.3-6.5 1-0.6 2.2-1.4 2.6-2 0.4-0.6 0.8-1.3 0.8-1.8 0-0.4-0.4-0.5-1-0.2-0.6 0.3-1.1-0.5-1.3-4l-0.3 2.2c-0.2 1.3-0.8 2.3-1.4 2.3-0.6 0-1-0.6-1-1.3 0-0.6 1-4.6 2.1-8.7 1.8-6.3 2.2-10.8 2.7-47.5l18.2-0.6c10-0.4 18.5-1 18.8-1.3 0.3-0.3 1.4-0.6 2.4-0.6zm-208.9 68.1c1.5-0.1 4.3 0.6 6.2 1.4 2.2 1 3.4 2.1 3.4 3.3-0.1 0.9 0.8 4.6 2 8.2 1.3 3.6 2.5 9.4 2.8 13 0.3 3.6 0.3 10-0.1 14.3-0.4 5.2-1 7.7-1.8 7.7-0.7-0.1-1.9 0.6-2.5 1.5-1.1 1.2-1 2.1 0.2 4.8 0.8 1.7 1.4 3.2 1.2 3.3-0.1 0-1.8 0.7-3.7 1.5-1.9 0.8-4.5 2.4-5.7 3.7-1.3 1.2-2.3 2.1-2.3 2 0-0.2-1.7 0-3.8 0.3-2.4 0.4-4.3 0.2-5.4-0.7-1-0.8-1.4-1.6-0.8-1.9 0.6-0.3 0.3-1.8-0.8-3.7-1.1-1.8-2.9-3.5-4.1-3.8-1.2-0.3-2.1-0.9-1.9-1.5 0.2-0.6-1.4-1.1-3.4-1.2-3.5-0.3-3.8-0.5-3.3-2.8 0.3-1.4 0.1-2.5-0.5-2.5-0.5 0-1 0.8-1 1.8 0 1.2-0.4 1-1.3-0.8-0.7-1.4-0.9-2.6-0.5-2.7 0.4-0.2 0.8-0.7 0.8-1.3 0-0.6-1.5-1-3.2-1-1.8 0-4.4-0.5-5.8-1.2-2-1-2.4-1.9-2.2-4.3 0.2-2-0.2-3.3-1.2-3.7-0.9-0.5-1.6-1.5-1.6-2.3 0-0.8 1.6-3.1 3.5-5 1.9-1.9 3.5-3.9 3.5-4.5 0-0.6-0.4-0.8-1-0.5-0.5 0.3-1-0.4-1-1.5 0-1.1-1-2.4-4.5-3.9h2.3c1.2-0.1 2-0.5 1.7-1.1-0.3-0.6 0.2-1.7 1.1-2.5 0.8-0.8 2.2-1.5 3-1.5 0.8 0 1.4-0.4 1.4-1 0-0.6 0.5-0.8 1-0.5 0.6 0.3 1.6 0.2 2.3-0.2 0.6-0.4 3.6-0.7 6.5-0.5 4.4 0.2 5.2-0.1 5.3-1.5 0-1.4 0.3-1.3 1.2 0.5 0.7 1.2 2 2.2 3 2.2 0.9 0 2-0.8 2.4-1.7 0.4-1.2-0.1-2.4-1.5-3.5-1.2-1-2.2-2-2.2-2.3 0-0.3 0.6-0.3 1.3-0.1 0.6 0.2 2.8-0.3 4.7-1 1.9-0.7 4.7-1.3 6.3-1.3zm231.9 149.9l0.7 2.8c0.4 1.5 0.7 2.8 0.7 2.9-0.1 0.1-1.2-0.1-2.6-0.4-2.5-0.5-2.5-0.5-0.7-2.9zm-23.7 2.4c0.1 0.1 0 2.9-0.1 6.3-0.3 4.8-0.7 6.3-1.8 6.3-0.9 0-1.5-0.4-1.5-0.8 0-0.4-1.1-0.7-2.3-0.7-1.7 0-2.2-0.6-2.2-2.5 0-1.8 0.4-2.5 1.7-2.3 1.2 0.2 1.9-0.6 2.4-2.7 0.3-1.6 1.2-3.1 2.1-3.3 0.9-0.2 1.6-0.3 1.7-0.3zm-8.3 14c1.7 0 2.4 0.7 2.4 2.1q0 2-1.8 1.7c-1-0.1-2.4 0.9-3.2 2.3-0.9 1.3-2 2.2-2.5 2q-1-0.5 0-2.5c0.7-1.5 0.6-2.1-0.3-2.4-0.7-0.3-0.2-0.5 1-0.5 1.3-0.1 2.2-0.7 2.1-1.5-0.1-0.8 0.8-1.3 2.3-1.2zm41.5 13.6c0.5 0 1.7 0.8 2.6 1.7 1 1 1.8 2.6 1.8 3.5 0 1-0.4 1.7-0.8 1.7-0.4 0-2.5-0.9-4.7-1.9-3.8-1.8-3.9-1.9-1.3-2 2.1 0 2.6-0.4 2.1-1.5-0.4-0.9-0.2-1.5 0.3-1.5z"/>
		<path id="Path 1" fill-rule="evenodd" class="s1" d="m371 21c1.1 0 2.3 0.7 2.8 1.5 0.4 0.7 0.1 7.9-0.5 16-1.1 11.7-1.7 15-5.3 20l0.4-18c0.2-9.9 0.5-18.3 0.5-18.8 0.1-0.4 1-0.7 2.1-0.7zm-259.5 59.4c1.1 0.3 3.7 0.6 5.8 0.6 3.7 0 3.7 0 3.7 4.3 0 2.3-0.5 4.7-1.2 5.4-0.7 0.6-1.9 1-2.5 0.7-0.7-0.2-2.1-0.7-3-1.1-1-0.3-2.1-0.7-2.6-0.7-0.4-0.1-1.4-1.3-2.2-2.8-0.9-1.7-1.2-3.6-0.8-4.9 0.5-1.5 1.3-1.9 2.8-1.5zm190.5 1.6c2.2 0 4 0.5 4 1 0 0.5-0.8 1.7-1.7 2.6-1.6 1.5-1.9 1.5-2.8 0.1-0.5-0.9-1.6-1.6-2.2-1.7-0.7 0-1.3-0.5-1.3-1 0-0.5 1.8-1 4-1zm-164.3 17.4c0.2 0.3-0.6 2.5-1.7 4.9-1.1 2.3-2 4.8-2 5.5 0 0.6-0.7 1-1.5 0.7-1.2-0.4-1.4 0.2-1 3 0.4 2.7 0.1 3.5-1 3.5-0.8 0-1.3 0.5-1 1 0.3 0.6 0.1 1-0.5 1-0.5 0-1.2 0.9-1.5 2-0.3 1.1-0.9 1.8-1.5 1.5q-1-0.5 0-2.5c0.6-1.1 1-3.1 1-4.5 0-1.4-0.7-2.7-1.5-3-0.9-0.3-1.3-1.2-1-2.2 0.3-1 2-3.5 3.9-5.5 1.9-2.1 4.4-3.8 5.5-3.8 1.2 0 2.4-0.5 2.8-1.1 0.3-0.6 0.8-0.8 1-0.5zm-100.5 9.9c4.7 0.1 9 0.5 9.5 0.9 0.4 0.4-0.3 1-1.7 1.3-2 0.6-2.2 0.9-1 1.5 0.8 0.5 1.2 1.3 0.7 1.7-0.4 0.4-1.3 0.2-2-0.5-0.6-0.7-1.5-1.2-1.9-1.2-0.5 0-0.8 0.5-0.8 1 0 0.5 1.2 1.3 2.8 1.7 1.5 0.3 3.3 1.3 3.9 2.2 1.1 1.4 1.4 1.4 2.3 0.1 0.7-1.1 1 0 1 4 0.1 5.4 0 5.5-3.7 7.4-2.1 1-4.5 2.3-5.3 2.7-0.8 0.5-3.4 1.8-5.7 2.9-3.4 1.6-4.2 2.4-3.8 4 0.3 1.1 0.1 2-0.5 2-0.5 0-1-0.4-1-1 0-0.6-0.6-0.7-1.2-0.3-0.7 0.4-2 0.9-2.8 1-0.8 0.2-3.1 1.5-5 3-1.9 1.4-4.2 2.7-5 2.8-0.8 0.2-1.9-0.1-2.5-0.5-0.5-0.4-2.3-1.1-4-1.5-1.6-0.4-3.5-1.4-4.2-2.4-0.7-0.9-1.3-4.2-1.3-7.3 0-4 0.7-7.3 2.3-10.5 1.2-2.6 3.6-6.1 5.3-7.8 1.9-1.8 5.9-3.9 10-5.2 5.3-1.7 8.9-2.2 15.6-2zm84.7 13.1c0.3 0.2 0.5 2.3 0.4 4.5-0.2 2.9-0.8 4.1-1.8 4.1-0.8 0-1.6 0.5-1.7 1.2-0.2 0.7-1 0.9-2 0.5-1-0.4-1.8-1.1-1.8-1.7 0-0.6 0.6-1 1.3-1 0.6 0 2-0.9 3-2 0.9-1.1 1.5-2.6 1.3-3.2-0.3-0.7-0.2-1.6 0.1-2 0.3-0.4 0.8-0.6 1.2-0.4zm-8.9 14.6c0.6 0 1 0.4 1 1 0 0.6 0.5 0.8 1 0.5 0.6-0.3 0.7 0.9 0.3 3.5-0.7 3.3-0.5 4.2 1.1 5.2 1 0.7 1.6 1.9 1.3 2.6-0.5 0.8-2.8 1.1-6.9 1-3.5-0.1-7.6-0.1-9.3 0-2.7 0.2-3.2 0.7-4.7 5.4-0.9 2.9-2 7.6-2.5 10.3-0.5 2.8-0.9 8.6-0.8 13 0 5.2-0.4 8.4-1.2 9.3-1.1 1-1.3 0.6-1.5-1.8-0.2-1.6 0.2-3 0.7-3 0.6 0-0.8-0.9-3-2-2.2-1.1-4.8-2-5.7-2-1 0-1.6-0.4-1.3-1 0.3-0.6-0.4-1-1.5-1-1.1 0-1.8-0.4-1.5-1 0.3-0.6 0.1-1-0.5-1-0.5 0-1 0.7-1 1.5 0 0.8-0.4 1.3-1 1-0.5-0.3-1-1.4-1-2.5 0-1.1-0.4-1.8-1-1.5-0.5 0.3-1-0.3-1-1.2-0.1-1-0.2-3.1-0.3-4.6-0.2-2.4-0.5-2.7-2.7-2.1-1.4 0.4-3.1 0.7-3.7 0.8-0.7 0-1.5 1.3-1.8 2.9-0.3 1.5-0.7 2.7-1 2.7-0.3 0-1.2-0.7-2-1.5-0.8-0.8-1.5-1.7-1.5-2 0-0.3 0.7-0.5 1.5-0.5 0.8 0 1.7-1 2-2.2 0.3-1.6-0.3-3-2-4.5-1.4-1.3-2.2-2.5-1.7-2.8 0.4-0.3-0.1-0.7-1-1-1-0.3-1.6-0.9-1.3-1.5 0.3-0.6-0.1-1.6-0.7-2.3-0.7-0.8-2-1.6-2.8-2q-1.5-0.5 0.8-0.6c1.5-0.1 2.2-0.8 2.4-2.3 0-1.3 0-3.3 0-4.5-0.2-1.8 0.3-2.2 1.8-2 1.2 0.1 1.8 0.7 1.5 1.5-0.3 0.6 0 1.4 0.5 1.7 0.6 0.3 1 0.1 1-0.5 0-0.6 0.9-1 2-1 1.1 0 2 0.4 2 1 0 0.6-0.6 1-1.2 1-1 0-1 0.2-0.1 0.8 0.7 0.4 1.2 2.2 1.2 4 0 2.4-0.5 3.4-1.9 3.7-1.1 0.3-2 0.9-2 1.5 0 0.6 0.6 0.7 1.3 0.4 0.6-0.3 2 0.2 3 1 1.5 1.4 1.9 1.4 3.2 0.1 0.9-0.9 1.1-1.7 0.5-2-0.5-0.3-1.4-0.3-2 0-0.5 0.3-1 0.2-1-0.2 0-0.5 1.3-1.4 3-2 2.6-1.1 2.9-1.6 2-3.3-0.9-1.9-0.7-2 3.8-1.4 2.6 0.3 6.3 0.6 8.2 0.6 1.9 0 6.8 0 10.8-0.1 5.4-0.1 7.3-0.5 7.7-1.6 0.3-0.8 1.2-1.5 2-1.5 0.8 0 1.3-0.4 1-1-0.3-0.6 0.1-1.3 0.8-1.7 0.8-0.5 1.7-1.6 2-2.5 0.4-1 1.4-1.8 2.2-1.8 0.8 0 1.5-0.7 1.5-1.5 0-0.8 0.5-1.5 1-1.5zm246.6 86.8c0.2 0.6 1.3 1.2 2.4 1.2 1.1 0 2 0.4 2 1 0 0.6-0.9 0.8-2 0.5-1.7-0.4-2.1 0.1-2.3 3.3q-0.4 3.7-0.5-1.8c0-3 0.1-4.9 0.4-4.2zm0.3 12.9c1 0.3 1.9 0.9 2 1.4 0 0.5-0.3 0.9-0.9 0.9-0.5 0-0.9 1.6-0.7 3.5 0.1 1.9-0.1 3.5-0.5 3.5-0.5 0-0.8 2.7-0.8 6 0 5.3 0.2 5.9 1.7 5.3 1.4-0.7 1.6-0.4 0.9 1.2-0.4 1.1-1 9.6-1.3 19-0.3 9.4-0.7 17.1-0.9 17.3-0.2 0.1-1.1-0.5-1.9-1.3-1.1-1.1-1.4-3-1-7.7 0.3-3.5 0.8-13.7 1.2-22.8 0.4-9.1 0.6-18.8 0.5-21.6-0.1-4.5 0.1-5.1 1.7-4.7zm-299.6 5.6c1.3-0.2 2.4-0.1 2.5 0.2 0.1 0.3-0.9 1.6-2.3 3-1.8 1.8-2.3 3.1-1.8 4.8 0.5 1.6 0.3 2-0.5 1.5-0.7-0.5-1.9-0.1-2.7 0.7-0.8 0.8-1.3 1.8-1 2.3 0.2 0.4 0 2.3-0.6 4.2-0.5 1.9-1.6 6.6-2.3 10.5-0.8 3.9-1.6 9.7-1.9 13-0.4 4.1-0.1 6.6 0.8 8 1 1.5 1.2 3.1 0.5 6-0.6 3-0.4 5 0.8 8 0.8 2.2 2 4.3 2.6 4.7 0.6 0.4 0.8 1.6 0.4 3-0.4 1.3-0.2 4.3 0.4 6.8 0.6 2.6 2.4 5.9 4.2 7.8 1.7 1.8 2.8 3.2 2.4 3.2-0.5 0 0.5 1.9 2.2 4.3 1.6 2.3 4 6.7 5.4 9.7 2.4 5.4 2.4 5.5 0.5 6.8-1 0.6-1.9 1.9-1.9 2.7 0 1.2-0.4 1.3-2 0.5-1.4-0.7-1.9-1.7-1.5-3.2 0.2-1.3 0.6-3.4 0.7-4.7 0.2-1.3-0.3-2.6-0.9-2.8-0.7-0.1-1.3 0.4-1.3 1.2 0 0.9-0.6 1.3-1.5 1-0.8-0.3-1.7-0.1-2 0.5-0.3 0.6-1.6 0.3-3.1-0.7-1.4-1-3.9-4-5.4-6.8-1.5-2.7-3.1-6.1-3.5-7.5-0.4-1.4-1.8-3.9-5.4-8.5l2.5-2.2c1.3-1.3 2.4-3.4 2.4-4.8 0-1.4-0.4-2.7-1-3-0.5-0.3-1.2-0.4-1.4-0.2-0.3 0.1-0.7 1.6-0.9 3.2-0.3 1.6-0.6 3.4-0.6 4q-0.1 1-1.1 0c-0.5-0.6-1.2-3.7-1.4-7-0.3-3.6-1-6.3-1.8-6.7-0.9-0.6-0.8-0.8 0.5-0.8 0.9 0 1.6-0.3 1.6-0.7-0.1-0.5-0.1-1.7 0-2.8 0.2-1.9 0.3-1.9 1.4 0.3 0.7 1.2 1.5 2.2 2 2.2 0.4 0 0.9-0.7 1.2-1.5 0.3-0.8-0.2-2.2-1-3-0.8-0.8-1.8-1.5-2.2-1.5-0.5 0-0.5-2.2-0.1-4.8 0.5-2.8 0.4-5.1-0.2-5.7-0.7-0.7-0.7-1.9 0-3.7 0.5-1.6 1-4.3 0.8-9.3l-1.1 3.3c-0.7 1.8-1.5 3-2 2.5-0.4-0.4-0.7-0.2-0.7 0.5 0 0.7-1.3 1.2-3 1.2-1.6 0-3.2-0.4-3.5-1-0.3-0.6 0.5-1.6 1.8-2.4 1.2-0.7 2.7-1.4 3.2-1.4 0.6-0.1 1.6-2.9 2.4-6.4 0.7-3.5 1.4-7.5 1.5-9 0-1.6 0.7-2.8 1.4-2.8 0.6 0 1.7-1.7 2.4-3.7 0.7-2.3 1.3-3.1 1.5-2 0.2 0.9 1.2 1.7 2.3 1.7 1.4 0 2.2-0.9 2.7-2.7 0.3-1.6 1.2-3.2 1.9-3.8 0.7-0.6 1.4-1.7 1.6-2.5 0.2-0.8 0.9-1.9 1.6-2.5 0.7-0.5 2.3-1.1 3.5-1.2zm3.4 6.7c0.4 0 1.4 0.5 2.1 1.2 0.7 0.7 1.2 2.3 1.2 3.6 0 1.2-0.7 2.4-1.5 2.7-0.8 0.3-1.5 0.4-1.5 0.3-0.1-0.2-0.3-2-0.6-4-0.3-2.1-0.2-3.8 0.3-3.8zm292.3 46c0.6 0 1 0.4 1 1 0 0.6 0.5 0.8 1 0.5 0.6-0.3 1 2.1 0.9 13l-1.5-3.5c-0.9-1.9-1.8-5.2-2-7.2-0.2-2.1 0.1-3.8 0.6-3.8zm-288.3 9.6c0.2 1 1.6 2.7 3.1 3.6 1.5 1 2.1 1.8 1.5 1.8-0.7 0-1.3 1-1.3 2.3 0 1.2-0.6 3.1-1.4 4.2-1.4 1.9-1.5 1.9-2.1-1-0.4-1.6-1.3-4.4-2-6-1.2-2.6-1.2-3.2 0.3-4.9 1.6-1.9 1.6-1.9 1.9 0zm63.4 9.4c1.7 0 1.9 0.8 1.9 8 0 7.7-0.1 8-2 7-1.5-0.8-1.9-1.8-1.6-4.2 0.2-1.8 0.1-4.2-0.3-5.3-0.4-1.1-0.6-2.8-0.4-3.7 0.3-1 1.3-1.8 2.4-1.8z"/>
		<path id="Path 2" class="s2" d="m49.1 110.6c0.5 0.8 1.6 1.4 2.4 1.4 0.8 0 1.5 0.5 1.5 1 0 0.6-1 0.7-2.3 0.4-2-0.5-2-0.4 0.3 1 1.4 0.8 2.7 1 3 0.5 0.3-0.5 1.3-0.7 2.2-0.4 1 0.3 1.8 1 1.8 1.5 0 0.6-0.5 0.8-1 0.5-0.5-0.3-1 0.4-1 1.5 0 1.1 0.7 2.7 1.5 3.5 0.8 0.8 1.5 2.2 1.5 3 0 0.8-0.6 1.3-1.3 1-0.6-0.2-1.5-1.6-2-3-0.4-1.4-1.2-2.5-1.7-2.5-0.5 0-1.2 1.2-1.5 2.8-0.4 1.7-0.1 3 0.7 3.4q1.3 0.8-1 0.8c-2 0-2.2-0.5-2.2-5.2 0-3.9-0.3-4.9-1-3.8-0.9 1.3-1.2 1.3-2.3-0.1-0.6-0.9-2.4-1.9-4-2.2-1.5-0.4-2.7-1.1-2.7-1.7 0-0.5 0.3-1 0.7-1 0.5 0 1.4 0.5 2 1.2 0.7 0.7 1.6 0.9 2 0.4 0.5-0.5 0.1-1.1-0.7-1.3-1.1-0.4-0.7-1 1.4-2.3 2.4-1.4 3-1.5 3.7-0.4zm34.2 19.8c0.6 0.1 1.8 0.5 2.4 0.9 0.7 0.4 2 0.1 2.8-0.5 1.3-1.1 1.6-1 1.5 0.5 0 1-0.8 1.8-4.5 2l2.2 0.3c1.3 0.2 2.9 1.5 3.5 2.9 0.7 1.4 1.8 2.5 2.3 2.5 0.6 0 1.7-0.6 2.4-1.2 1-1.1 1.2-0.9 0.9 0.7-0.2 1.2-1 1.9-2.1 1.8q-1.7-0.3-1.2 1.2c0.3 0.8 0.9 1.5 1.5 1.5 0.6 0 0.7 0.7 0.2 1.6-0.5 1.2-0.3 1.5 1 1 1-0.3 1.9-1.2 1.9-1.8 0.1-0.7 0-1.7-0.1-2.3-0.1-0.6 0.4-0.7 1.1-0.4 0.8 0.4 2.3 0.1 3.4-0.7 1.1-0.7 2.3-1.1 2.7-0.9 0.5 0.3 0.5 1.3 0.2 2.3-0.6 1.4-0.5 1.5 0.7 0.4 0.8-0.7 1.6-2.1 1.8-3 0.1-0.9 0.4-2.7 0.5-3.9 0.1-1.7 0.7-2.3 2.3-2.3 1.3 0 3-0.2 3.8-0.5 0.8-0.3 1.5-0.1 1.5 0.5 0 0.6-0.7 1-1.5 1-0.9 0-1.3 0.6-1 1.5 0.3 0.8 0 1.5-0.5 1.5-0.6 0-1 0.7-1 1.5 0 0.8-0.7 1.5-1.5 1.5-0.8 0-1.8 0.9-2.3 2-0.4 1.1-1.3 2.3-2 2.5-0.6 0.3-1 0.9-0.7 1.5 0.3 0.6-0.2 1-1 1-0.8 0-1.7 0.7-2 1.5-0.4 1.1-2.3 1.5-7.8 1.6-3.9 0.1-8.8 0.1-10.7 0.1-1.9 0-5.6-0.3-8.3-0.6-4.4-0.6-4.6-0.5-3.7 1.4 0.9 1.7 0.6 2.2-2 3.3-1.7 0.6-3 1.5-3 2 0 0.4 0.4 0.5 1 0.2 0.5-0.3 1.4-0.3 2 0 0.6 0.3 0.4 1.1-0.5 2-1.3 1.3-1.7 1.3-3.3-0.1-0.9-0.8-2.3-1.3-3-1-0.6 0.3-1.2 0.2-1.2-0.4 0-0.6 0.8-1.2 1.7-1.5 1.2-0.3 1.9-1.6 2-3.7 0.1-1.8-0.3-3.6-1-4-0.9-0.6-0.9-0.8 0-0.8 0.7 0 1.3-0.4 1.3-1 0-0.6-0.9-1-2-1-1.1 0-2 0.4-2 1 0 0.6-0.5 0.8-1 0.5-0.6-0.3-0.7-1.3-0.3-2.2 0.5-1.1 0.4-1.5-0.2-1.1-0.6 0.4-1.5 0.4-2.1 0-0.6-0.4-1.4-1.6-1.8-2.7-0.5-1.7-0.1-2 2.2-1.9 1.5 0 3.3 0.3 3.9 0.7 0.9 0.5 1.5-0.2 1.8-1.8q0.5-2.5 2-2c0.8 0.3 2.1 0.5 2.7 0.5 0.9 0 1.2 1.5 1 5-0.2 4.9-0.1 5 3 5.8 2.1 0.5 4.1 0.5 5.3-0.2 1.1-0.6 2.8-1.8 3.8-2.6 1-0.8 1.8-1.7 1.8-2-0.1-0.3-1-1.5-2.1-2.7-1.1-1.3-1.6-2.3-1-2.3 0.6 0 0.7-1.2 0.3-2.9-0.3-1.6-0.3-3.2 0-3.4 0.4-0.3 1.3-0.4 2-0.3zm-32.3 3.1c1.9 0.9 2.8 2.1 2.5 3-0.3 0.8-1.3 1.6-2.3 1.8-0.9 0.2-3.1-0.1-4.7-0.7-2.9-0.9-2.9-0.9-0.8-1.8 1.3-0.4 2.3-1.5 2.3-2.3 0.1-1.4 0.4-1.4 3 0zm7.2 24.7c0.4 0.2 0.8 0.6 0.8 1.1 0 0.4 1.1 1.7 2.5 3 1.7 1.5 2.3 2.9 2 4.5-0.3 1.2-1.2 2.2-2 2.2-0.8 0-1.5 0.2-1.5 0.5 0 0.3 0.7 1.2 1.5 2 0.8 0.8 1.7 1.5 2 1.5 0.3 0 0.7-1.2 1-2.7 0.3-1.6 1.1-2.9 1.8-2.9 0.6-0.1 2.3-0.4 3.7-0.8 2.2-0.6 2.5-0.3 2.7 2.1 0.1 1.5 0.2 3.6 0.3 4.6 0 0.9 0.4 1.5 1 1.2 0.5-0.3 1 0.4 1 1.5 0 1.1 0.4 2.2 1 2.5 0.5 0.3 1-0.2 1-1 0-0.8 0.4-1.5 1-1.5 0.5 0 0.8 0.4 0.5 1-0.3 0.6 0.4 1 1.5 1 1.1 0 1.8 0.4 1.5 1-0.3 0.6 0.3 1 1.2 1 1 0 3.6 0.9 5.8 2 2.2 1.1 3.5 2 3 2-0.6 0-0.8 1.5-0.6 3.3 0.2 2.3 0.5 2.8 1.1 1.7 0.5-0.8 1.1-1.3 1.3-1 0.2 0.3 1.1 4.2 2 8.8 1 4.5 1.5 8.9 1.2 9.7-0.3 0.9-1.3 1.3-2.8 1.1-1.2-0.3-2.8-0.5-3.5-0.5-0.6-0.1-1.2-1-1.2-2.1 0-1.1-0.3-2-0.8-2-0.4 0.1-1.2 0.8-1.9 1.8-0.8 1-1.2 1.2-1.3 0.5 0-0.7-0.7-1.1-1.5-0.8-0.8 0.3-1.5 0.1-1.5-0.5 0-0.6-0.5-1-1-1-0.6 0-0.7 0.6-0.3 1.2 0.6 0.9 0.3 1-1 0.5-0.9-0.4-2.4-0.7-3.2-0.7-0.8 0-1.7-0.8-1.9-1.7-0.3-1.3-0.4-1.1-0.5 0.5-0.1 1.6-0.7 2.2-2.4 2.2-1.3 0-2.8 0.6-3.5 1.3-1 0.9-1.2 0.7-1.2-1 0-1.3-0.5-2.3-1-2.3-0.6 0-0.8 0.7-0.5 1.5 0.3 0.8-0.5 2.4-1.8 3.5-1.9 1.7-2 1.9-0.5 2 1 0 2-0.6 2.3-1.2 0.4-1 0.7-0.9 1.2 0.2 0.4 0.8 1.6 2.4 2.7 3.5 1.1 1.1 2.6 4.3 3.2 7 0.7 2.8 1 6 0.8 7.3-0.2 1.2 0.1 2.2 0.8 2.2 0.6 0 0.8 0.2 0.5 0.5-0.4 0.3 0.2 1.5 1.3 2.8 1.3 1.3 1.8 3 1.4 4.2-0.3 1.2 0.2 2.7 1.3 3.8 1 1 2.4 1.8 3 1.7 0.7 0 1.6 0.7 2 1.6 0.5 0.8 1.4 1.3 2 1 0.8-0.4 1.5 0.3 1.8 1.4 0.3 1.1 1 2 1.7 2 0.6 0 0.9 0.3 0.5 0.8-0.3 0.4-0.2 1.7 0.3 3 0.7 1.6 0.6 2.8-0.5 4.5-0.8 1.2-1.5 4.3-1.5 7 0 3.7-0.4 4.9-2 5.7-1.6 0.8-2 0.7-2-0.5 0-0.8-0.5-1.5-1-1.5-0.6 0-1 0.8-1 1.8 0.1 1.5-0.1 1.5-1.5 0.2-0.8-0.8-1.8-2.9-2.1-4.5-0.4-1.6-1.4-4.2-2.3-5.8-0.9-1.5-2.4-2.7-3.4-2.7-0.9 0-1.9-0.7-2.2-1.5-0.3-0.8-1.1-1.5-1.8-1.5-0.6 0-1.8-0.9-2.5-2-0.6-1.1-1.9-1.8-2.7-1.5q-1.5 0.5-1.5-1.5c0-1.1-0.6-2-1.3-2-0.7-0.1-0.5-0.5 0.5-1.3 1-0.7 1.7-1.5 1.8-1.9 0-0.5-1-0.6-2.3-0.5-1.2 0.2-3 0.7-4 1-0.9 0.4-1.5 1.1-1.2 1.7 0.3 0.6-0.3 1.8-1.3 2.8-1 0.9-2.1 2.9-2.5 4.5-0.5 1.8-1.4 2.7-2.7 2.7-1.7 0-2-0.7-2.3-5.7-0.2-5.2-0.4-5.8-2.7-6.4-1.6-0.4-1.9-0.7-0.8-0.8 1-0.1 1.8-0.4 1.8-0.8 0-0.5-0.4-1.2-0.9-1.8-0.6-0.6-0.7-1.6-0.3-2.3 0.5-1 1.5-0.4 3.5 2 1.5 1.8 3.1 2.9 3.5 2.5 0.4-0.5 0.7-1.4 0.7-2 0-0.5 0.6-1.2 1.2-1.4 0.7-0.1 1.3 0.3 1.3 1q0 1.2 1-0.3c0.5-0.8 1-1.8 1-2.2 0-0.5-0.5-0.6-1-0.3-0.6 0.3-1 0.4-1 0.3 0-0.2 0.6-1.6 1.4-3.3 0.9-1.6 1.6-4.8 1.6-7 0.1-2.2 0.1-4.9 0.2-6 0-1.1-0.2-5.4-0.4-9.5-0.3-4.1-0.8-8.1-1.1-8.7-0.4-0.7-0.6-4.3-0.5-8 0.1-3.8 0.6-7.1 1.2-7.5 0.8-0.5 0.7-1.8-0.2-4.5-0.8-2.1-1.1-5-0.8-6.5 0.3-1.6 0.1-3.7-0.4-4.8-0.6-1.1-1.7-2-2.5-2-0.8 0-1.5-0.7-1.5-1.5 0-0.8 0.4-1.5 1-1.5 0.5 0 0.8-0.6 0.5-1.2-0.4-0.7 0.6-2.6 2.1-4.1 1.5-1.5 3.1-2.6 3.6-2.5zm78.6 53.3c1.1 0.8 1.2 2.1 0.2 7-0.6 3.3-1.4 7.6-1.8 9.5-0.4 1.9-1.6 5-2.7 6.8-1.1 1.8-2.3 3.2-2.8 3.2-0.4 0-0.9-1.9-1.2-4.2-0.3-2.4-0.6-5.3-0.8-6.5-0.1-1.2-0.6-2.5-1-3-0.4-0.4-0.7-1.6-0.7-2.5 0-1-0.5-1.8-1-1.8-0.5 0-0.8 0.4-0.5 1 0.3 0.6-0.4 1-1.5 1-1.1 0-2 0.6-2 1.3 0 0.6-0.9 0.2-2-1-1.1-1.3-2-2.7-2-3.3 0-0.6-1-1.6-2.3-2.4-2.1-1.3-1.8-1.5 4.8-2.6 3.8-0.6 7.9-1.5 9-2 1.1-0.5 3.1-1 4.4-1.2 1.4-0.2 3.1 0.1 3.9 0.7zm-18.6 36.5c1 0 1.8 0.7 1.8 1.5 0 0.8-0.3 1.3-0.8 1-0.4-0.2-1.3 0.7-2 2-0.6 1.4-1.2 3.6-1.2 5 0 1.4-0.7 3.2-1.5 4-1.3 1.3-1.6 1.3-2 0-0.4-1.1-1-1.3-2.5-0.5-1.1 0.6-2.2 1-2.5 1-0.3 0-0.5-0.7-0.5-1.5 0-0.8-0.3-1.5-0.8-1.5-0.4 0-1.2-1-1.7-2.2-0.8-1.8-2-2.4-5.1-2.6-2.2-0.2-3.9-0.7-3.7-1.3 0.2-0.5 1.2-0.7 2.3-0.4 1.1 0.3 2.7-0.1 3.5-0.7 0.9-0.7 1.6-0.9 1.6-0.3-0.1 0.6 1.6 0.9 3.7 0.8 2-0.1 4.3-0.2 4.9-0.2 0.7-0.1 2.1-1 3-2.1 0.9-1.1 2.5-2 3.5-2zm-75.8 26.5l0.4 3c0.2 1.6-0.2 4.4-0.7 6-0.7 1.9-0.7 3.4-0.1 4 0.6 0.6 0.7 3 0.2 5.7-0.4 2.6-0.4 4.8 0 4.8 0.5 0 1.5 0.7 2.3 1.5 0.8 0.8 1.3 2.2 1 3-0.3 0.8-0.8 1.5-1.3 1.5-0.4 0-1.2-1-1.9-2.2-1.1-2.2-1.2-2.2-1.4-0.3-0.1 1.1-0.1 2.3 0 2.8 0 0.4-0.6 0.7-1.4 0.7-0.8 0-1.5-0.7-1.5-1.5 0-0.8 0.4-1.6 0.9-1.7 0.5-0.2 0.7-1.8 0.5-3.5-0.2-1.8-0.9-3.1-1.4-2.8-0.6 0.3-0.9-0.9-0.9-2.7 0.1-1.8-0.1-3.9-0.5-4.5-0.3-0.7-0.2-1.3 0.4-1.3q1 0 0-2c-0.6-1.1-1-2.2-1-2.5 0-0.3 0.7-0.5 1.5-0.5 0.8 0 1.5-0.4 1.5-1 0-0.6 0.4-0.8 1-0.5 0.5 0.3 1.3-1 1.7-2.7zm-4 31.1c0.8 0.3 1.5 0.9 1.6 1.2 0.1 0.4 0.3 1.7 0.6 2.9 0.2 1.3 0 2-0.6 1.8-0.6-0.3-1-1.2-1-2 0-0.9-0.7-1.8-1.5-2-0.8-0.3-1.3-1-1-1.5 0.2-0.5 1.1-0.7 1.9-0.4zm6.9 6.6c0.7 0.2 1.3 1.3 1.5 2.3 0.2 1.1-0.3 3-1 4.2-0.7 1.3-2 2.6-2.8 2.9-1.2 0.4-1.3 0.1-0.7-1.3 0.5-1 1-2.5 1.2-3.3 0.2-0.9 0.4-2.4 0.5-3.4 0.1-1 0.7-1.6 1.3-1.4zm19 31c0.6 0.2 0.9 2 0.8 3.8-0.2 1.9-0.7 3.9-1.2 4.5-0.7 0.6-1.2 0.2-1.5-1.3-0.2-1.2-1.1-2.2-1.9-2.2-0.8 0-1.4-0.6-1.2-1.3 0.2-0.7 1.1-1.1 2-1 0.9 0.1 1.7-0.5 1.8-1.3 0.1-0.9 0.6-1.4 1.2-1.2z"/>
		<path id="Path 3" class="s3" d="m368 24.4c0.5 0.3 0.7 6.1 0.5 12.8-0.2 6.8-0.7 17.2-1.2 23.2-0.4 5.9-1.1 11-1.6 11.2-0.4 0.2-1.3 0.2-1.9-0.1-1-0.4-1.1-2.7-0.6-9.3 0.3-4.8 0.9-14.5 1.3-21.7 0.4-7.2 1.1-13.8 1.7-14.8 0.5-1 1.3-1.5 1.8-1.3zm-260.8 63c1.5 0 3 0.8 3.3 1.6 0.3 0.8-0.1 2.2-1 3-1.4 1.3-1.5 1.3-1.6-0.5 0-1.1-0.7-2.5-1.7-3.1-1.5-1-1.3-1.2 1-1zm259.5-0.4c0.4 0 0.7 4.6 0.6 10.2-0.1 5.7-0.4 22.9-0.8 38.3-0.3 15.4-1 28.6-1.5 29.3-0.6 0.6-0.7 1.4-0.2 1.6 0.4 0.2 0.6 3.6 0.5 7.5-0.2 5.2 0 7.1 1 7.1 0.9-0.1 0.9 0.2 0 1.2-0.7 0.7-1 1.7-0.5 2.1 0.4 0.4 0 1.2-0.8 1.7-0.9 0.6-1.5 2.6-1.6 5.2-0.1 2.4-0.4 7.2-0.8 10.8-0.3 3.6-0.9 9.4-1.1 13-0.3 3.6-1 6.9-1.5 7.5-0.6 0.6-1 3.5-1 6.5 0 3-0.2 9.1-0.4 13.5-0.3 4.4-0.7 14.5-1 22.5-0.3 8-0.8 17.3-1.1 20.8-0.4 4.7-0.1 6.6 1 7.7 0.8 0.8 1.2 2.1 0.8 2.8-0.5 1-0.7 1-1 0-0.2-0.7-0.7-1.3-1.3-1.3-0.5 0-0.8 1.7-0.7 3.8 0.2 2 0.9 4.7 1.5 6 0.7 1.2 1.4 4.6 1.6 7.5 0.2 2.8 0.5 6.9 0.5 9 0.1 2.1 0.5 3.5 1.1 3.2 0.6-0.3 1-0.1 1 0.5 0 0.6-0.2 1.7-0.5 2.5-0.3 0.8-0.9 1.3-1.5 1-0.5-0.3-2.2 0-3.7 0.5-1.9 0.7-3.1 0.7-3.8 0q-1-1 0.3-1c0.8 0 1.2-1.5 1.1-4.2 0-2.4-0.4-5.2-0.9-6.3-0.5-1.1-0.9-1.6-1-1-0.1 0.6-0.6-0.1-1.1-1.5-0.8-2-1.2-2.2-1.8-1-0.6 1.1-1 1.2-1.5 0.3-0.3-0.7 0.5-2.5 1.8-4 1.9-2.3 2.4-4.1 2.5-9.8 0.2-3.9 0.5-9 0.8-11.5 0.2-2.5 0.6-10.8 0.9-18.5 0.2-7.7 0.8-19.8 1.3-27 0.5-7.2 1-15 1-17.5 0-2.5 0.2-10.8 0.6-18.5 0.3-7.7 1-20.3 1.6-28 0.5-7.7 1.1-15.1 1.4-16.5 0.2-1.4 0.8-8.1 1.2-14.9 0.6-9.6 1.1-12.5 2.3-12.9 1.1-0.3 1.1-0.6 0.3-1.1-0.8-0.4-1.2-5.6-1.3-17.1-0.1-9.1-0.1-18.3 0-20.6 0.1-2.8 0.9-4.9 2.5-6.8 1.3-1.4 2.8-2.6 3.2-2.6zm-252.5 10.5c0.7 0.3 1.3 1.3 1.3 2.3-0.1 0.9-0.7 2.7-1.5 3.9-0.8 1.3-1.8 2-2.3 1.5-0.4-0.4-0.7-0.1-0.7 0.6 0 0.6-0.9 1.2-2 1.2-1.1 0-2-0.3-2-0.7 0-0.5 0.5-2 1.2-3.5 0.7-1.6 2.1-2.8 3.1-2.8 0.9 0 1.7-0.7 1.7-1.5-0.1-0.8 0.5-1.2 1.2-1zm-19.1 2.1c1.3 0.1 2.7 0.3 3 0.3 0.4 0.1-0.2 1.1-1.2 2.4-1.1 1.2-1.9 2.8-1.9 3.5 0 0.6 0.9 1.4 2 1.7 1.2 0.3 1.8 1.1 1.5 2-0.3 0.8-0.5 2.1-0.5 2.8 0.1 0.9-0.2 0.9-1.2 0-0.7-0.6-1.8-0.9-2.4-0.5-0.6 0.4-0.9 2.1-0.8 3.7 0.1 1.7 0.3 3.3 0.3 3.8 0.1 0.4 0.8 0.7 1.6 0.7 0.9 0 1.5 0.9 1.5 2.5 0 1.4-0.3 2.4-0.7 2.4-0.5-0.1-1.7-0.1-2.8 0-1.7 0.1-1.8 0.3-0.5 1.1 0.8 0.5 1.1 1 0.5 1-0.5 0-0.3 0.5 0.5 1q1.5 1 0.3 1c-0.7 0-1.1 0.4-0.8 1 0.3 0.6 0.1 1-0.5 1-0.5 0-0.8 0.9-0.5 2 0.3 1.2 0 2-0.7 1.9-0.7-0.1-2.4-0.5-3.8-0.9-2.4-0.8-2.4-0.8-0.2-0.9 1.6-0.1 2.2-0.7 2.2-2.3 0.1-1.3-0.6-2.9-1.5-3.5-0.8-0.7-2.2-1.1-3-0.8-0.8 0.3-1.4 1.3-1.2 2.2 0.1 1-0.3 1.8-1 1.8-0.7 0-1.7 0.5-2.2 1-0.6 0.6-2.2 0.9-3.6 0.8-1.4-0.2-2.5-0.5-2.5-0.8 0-0.3 0.6-1.6 1.3-3 0.6-1.4 1.5-2.5 2-2.5 0.4 0 0.9 0.5 1.2 1 0.3 0.6 1 1 1.5 1 0.6 0 1-0.4 1-1 0-0.5-1.3-1.4-3-2-2.4-0.8-3-0.7-3 0.5 0 0.8-0.4 1.5-1 1.5-0.5 0-1.2-0.4-1.5-1-0.3-0.5-1.3-0.7-2.2-0.3-1.4 0.6-1.6 0.5-0.8-0.7 0.8-1.2 0.6-1.3-0.7-0.7-1.4 0.5-1.8 0.2-1.8-1.3 0-1.1 0.3-1.9 0.8-1.8 0.4 0 1.5-0.2 2.5-0.5 0.9-0.4 1.5-1.1 1.2-1.7q-0.5-1-2 0c-1.1 0.7-2.1 0.5-3.7-1-2.2-2-2.3-2-3-0.3-0.6 1.7-0.7 1.7-0.7 0.1-0.1-1.4-0.7-1.7-2.5-1.2-2.2 0.6-2.3 0.5-1.3-1.5 0.7-1.1 2-2.1 3-2.1 0.9 0 1.9 0.5 2.2 1 0.3 0.6 2.3 1 4.5 1 2.9 0 4-0.4 4-1.5 0-0.8 1-1.8 2.3-2.2 1.2-0.3 4.8-0.7 7.9-0.7 3.2-0.1 5.8 0.2 5.8 0.7 0 0.4-0.9 1.7-2 3-1.1 1.2-2 2.5-2 3 0 0.4 0.7 0.5 1.5 0.2 0.8-0.3 1.5-0.9 1.5-1.5 0-0.5 0.9-0.8 2-0.5 1.5 0.4 1.9 0.1 1.6-1.2-0.3-1-0.5-2-0.6-2.3-0.1-0.3-0.3-1.4-0.4-2.5 0-1.1 0.3-2.2 0.7-2.5 0.5-0.3 0.9-1.8 0.9-3.5 0-1.6 0.1-3.3 0.3-3.6 0.1-0.3 1.3-0.5 2.6-0.3zm-42.4 5.5c0.1 0.5 0.8 0.7 1.3 0.4 0.6-0.3 1-0.2 1 0.3 0 0.4-0.9 1.5-2 2.5-1.1 0.9-2.4 1.7-3 1.7-0.5 0-1.1-0.7-1.2-1.6-0.2-0.9 0.6-2.3 1.6-3 1.1-0.7 2.1-0.9 2.3-0.3zm-3.4 22.9c0.4 0 0.7 0.7 0.7 1.5 0 0.8 0.5 1.5 1.2 1.5 0.8 0 0.9 0.4 0.3 1-0.7 0.7-1.9 0.7-4 0-2.9-1-2.9-1.1-1-2.5 1.1-0.8 2.3-1.5 2.8-1.5zm12.4 4.5c0.2 0.8 1 1.5 1.8 1.5 0.8 0 1.5 0.6 1.4 1.3 0 0.6-0.4 2.1-0.8 3.2-0.4 1.1-1 1.6-1.3 1-0.4-0.6-2.5-0.9-4.7-0.7-2.3 0.1-4.3-0.2-4.6-0.8-0.3-0.6 0.3-1 1.3-1 0.9 0 2.4-0.9 3.3-2 0.8-1.1 1.3-2 1-2-0.3 0 0-0.5 0.8-1 1.1-0.7 1.6-0.5 1.8 0.5zm307.3 23.5c0.6 0 1 2.7 1 6 0 3.3-0.3 6.2-0.8 6.4-0.4 0.2-0.8-2.5-0.9-6-0.2-3.7 0.2-6.4 0.7-6.4zm-316.9 8.3c0.5 0.6 0.4 1.3-0.1 1.5-0.6 0.1-1 0.9-1 1.7 0 0.8 0.8 1.5 1.7 1.5 1.6-0.1 1.6 0.1 0.3 1.6-0.8 0.9-3 2.3-4.8 3.1-1.7 0.7-3.4 1.3-3.7 1.3-0.3 0-0.5-0.8-0.5-1.7 0-1 1-2.7 2.2-3.9 1.3-1.1 2.9-3 3.7-4.2 1.1-1.6 1.7-1.8 2.2-0.9zm2.9 64.7c1.6 0 1.9 0.5 1.4 2.3-0.3 1.2-1 2.6-1.5 3.2-0.5 0.6-0.9 1.3-0.9 1.8 0 0.4 0.4 0.5 1 0.2 0.5-0.3 1-0.2 1 0.3 0 0.4-0.5 1.4-1 2.2q-1 1.5-1 0.3c0-0.7-0.6-1.1-1.3-1-0.6 0.2-1.2 1-1.2 1.7 0 0.7-0.5 1.5-1 1.7-0.6 0.2-1.6-0.6-2.3-1.7-1-1.6-0.9-2.5 0.2-4.4 0.8-1.3 2.2-2.7 3-3 0.9-0.3 1.6-1.3 1.6-2.1 0-0.8 0.9-1.5 2-1.5zm5.6 17c0.8 0 1.4 1 1.4 2.5 0 1.4-0.5 2.5-1 2.5-0.6 0-1.3 1.5-1.6 3.3-0.4 1.7-1.1 3.8-1.8 4.5-0.6 0.7-1.7 1.3-2.4 1.2-0.8 0-1-1.2-0.7-3.7 0.3-2.1 1-4.1 1.7-4.5 0.7-0.4 1.7-0.4 2.3 0 0.6 0.4 0.7 0 0.2-1-0.4-1-0.4-2.5-0.1-3.3 0.3-0.8 1.2-1.5 2-1.5zm51.6 15.6c0.4 0.8 1.2 1.2 1.8 0.9 0.5-0.3 1 0.2 1 1 0 0.8-0.9 1.9-2 2.5-1.5 0.7-2.4 0.6-3.5-0.5-0.8-0.8-1.6-1.9-1.7-2.5-0.1-0.5 0.7-1.3 1.7-1.9 1.4-0.7 2.1-0.6 2.7 0.5zm226.3 31.9c0.9 1.1 1.5 2.8 1.5 3.8 0 0.9-0.7 1.7-1.5 1.7-1.1 0-1.5-1.1-1.5-3.7 0.1-3.6 0.1-3.7 1.5-1.8zm-266.8 56.5c0.7 0 1.6 1 1.9 2.3 0.4 1.2 0.4 2.8 0 3.5-0.5 1-1.1 1-3.1 0-1.4-0.7-2.6-1.8-2.7-2.4-0.1-0.5 0.4-1.5 1.2-2.2 0.8-0.7 2-1.2 2.7-1.2z"/>
		<path id="Path 4" fill-rule="evenodd" class="s4" d="m95 80.8c1.9 0.3 4.8 1.1 6.5 1.9 1.7 0.8 3.7 1.3 4.5 1 0.8-0.3 2.1 0.3 2.8 1.4 1 1.5 1 1.9 0 2-0.7 0.1-2 0.1-2.8 0-1.2-0.1-1.2 0.1 0.2 1.1 1 0.7 1.7 2.2 1.7 3.3 0 1.9 0.1 1.9 2.6-0.2 1.4-1.3 2.7-2 2.9-1.5 0.2 0.4 1.6 0.9 3 1.2 1.5 0.3 2.9 0.2 3.2-0.2 0.2-0.5 1.9 0.7 3.8 2.5 3.2 3 3.4 3.5 2.8 7.7-0.4 2.5-1 4.4-1.4 4.3-0.5-0.2-1.9-0.3-3.3-0.3-1.4 0-3.4-0.9-4.5-2-1.1-1.1-1.8-2.7-1.5-3.5 0.3-0.8-0.2-1.7-1-2-0.9-0.3-1.5 0.1-1.5 1 0 0.8-0.8 1.5-1.8 1.5-0.9 0-2.3 1.2-3 2.8-0.7 1.5-1.2 3-1.2 3.5 0 0.4 0.9 0.7 2 0.7 1.1 0 2-0.6 2-1.2-0.1-0.9 0.6-0.7 1.7 0.4 1 1 2.3 1.7 2.8 1.7 0.5 0 1.6 0.7 2.3 1.6 0.7 0.9 2.1 1.3 3.5 1 1.2-0.3 2.5-1.1 2.9-1.8 0.6-0.9 0.8-0.9 0.8 0.1 0 0.6-0.2 1.8-0.5 2.5-0.4 0.8-2.3 1.1-5.5 1-5-0.3-5-0.3-4.3 2.5 0.3 1.5 1 2.8 1.5 3 0.4 0.1 0.8 1.1 0.8 2.2 0 1.2-0.9 2.3-2.3 2.7-1.9 0.5-1.8 0.6 1.1 1 2.6 0.2 3.1 0.7 2.7 2.3-0.3 1.1-1.2 2-2 2-0.8 0-2.2-0.3-3.2-0.7-0.9-0.5-2-1.8-2.5-3-0.7-1.9-1.1-2.1-2.4-1-1.2 0.9-1.2 1.3-0.2 1.9 1 0.5 1.1 1 0 2.2-0.6 0.9-1 2-0.7 2.6 0.3 0.6 1.5 1 2.8 1 2.1 0.1 2.1 0.1 0.2 1.2-1.1 0.6-2.3 1.6-2.7 2.2-0.3 0.6-1.3 0.8-2.2 0.4-1.3-0.6-1.6-0.2-1.6 4.7l-2.4-2.5c-1.3-1.4-2.1-2.9-1.8-3.5 0.3-0.6 0.6-2.7 0.8-4.7 0.2-2.1-0.1-4-0.6-4.3-0.5-0.3-1.3 1.1-1.7 3-0.5 2.3-1.2 3.4-2 3-0.7-0.3-1.9-0.5-2.5-0.5q-1.3 0 0.2-1 1.5-1 0.3-1c-0.7 0-1.1-0.5-0.8-1 0.3-0.5-0.1-1.2-0.7-1.4-0.7-0.3-0.5-0.5 0.5-0.5 0.9-0.1 2 0 2.3 0.2 0.4 0.1 1.1-0.9 1.6-2.3 0.4-1.4 0.6-3.3 0.3-4.2-0.3-1-1.3-1.8-2.2-1.9-1 0-0.2-0.7 1.7-1.4 1.9-0.7 2.8-1.4 2-1.4-1.2 0-1.3-0.7-0.7-3.1 0.6-2.5 0.4-3.1-1.3-3.5-1.1-0.3-2-1.1-2-1.7 0-0.7 0.6-2.1 1.3-3 0.7-1 1.5-1.7 2-1.8 0.4 0 0.7 0.7 0.7 1.5 0 1.3 0.3 1.3 2 0.3 1.1-0.7 2-1.6 2-2 0-0.5-0.7-0.6-1.5-0.3-0.8 0.3-1.7-0.2-2-1-0.4-1.1-1-1.3-2.5-0.5-1.1 0.5-2.6 0.9-3.2 0.8-0.8-0.2-1.3 1-1.5 3.2-0.1 1.9-0.6 3.6-1.2 3.8-0.6 0.1-1.1 0.9-1.1 1.7 0 0.8-1.2 1.7-2.7 2-1.6 0.3-3.6 0.3-4.5 0-1-0.3-3.6 0-5.8 0.5-2.4 0.6-4 1.6-4 2.5 0 1.1-1.1 1.5-4 1.5-2.2 0-4.2-0.5-4.5-1-0.3-0.5-1.4-1-2.5-1-1.1 0-2.2 0.7-2.5 1.5-0.4 1.1-1 1.2-2.2 0.6-1-0.5-2.6-2.1-3.7-3.7-1.7-2.6-1.7-3-0.2-3.6 0.9-0.5 1.6-1.3 1.6-1.8 0-0.5-0.5-0.8-1-0.5-0.5 0.3-1 0-1.1-0.5-0.1-0.6-0.9-0.5-2 0.2-1 0.7-2.1 2.1-2.4 3.1-0.3 0.9-1 1.7-1.5 1.7-0.5 0-1-1.3-1-3 0-1.7 0.6-3.6 1.3-4.2 0.7-0.7 1.9-2.9 2.6-4.8 0.6-1.9 2.2-4.5 3.4-5.8 1.2-1.2 2.7-2.2 3.3-2.2 0.6 0 2.9-1.8 5-4 2.2-2.1 4.2-3.6 4.6-3.2 0.4 0.4 2.6 0.3 5-0.1 2.4-0.5 7.9-1.2 12.3-1.6 4.4-0.4 9.6-0.5 11.5-0.3zm-51.7 50.2c1.2 0 2.9 0.4 3.7 0.9 0.9 0.6 1.2 1.5 0.8 2.5-0.5 0.9-1.6 1.6-2.5 1.6-1.6 0.1-1.5 0.2 0.2 1.2 1.1 0.6 3.4 1.1 5 1 1.7-0.1 3.9 0.5 5 1.3 1.9 1.4 1.9 1.6 0.3 2.5q-1.8 1-1.3 3.3c0.5 1.9 0.4 2-0.7 0.6-1.1-1.3-2.1-1.5-5.3-0.8-2.5 0.6-4.5 0.5-5.2-0.1-0.9-0.7-2.1-0.4-4 1-1.6 1.2-3.6 2.1-4.5 2-1.1 0-1.8-0.8-1.8-2 0-1.1-0.3-2-0.7-2-0.5 0.1-2.4 1.5-4.3 3.2-1.9 1.7-3.6 2.6-3.7 2-0.2-0.7-1.5-0.1-3 1.4-2 1.8-2.9 2.2-3.2 1.2-0.2-0.7 0.5-3 1.5-5 1.1-2 3.1-4.4 4.7-5.2 1.5-0.9 2.7-1.3 2.7-0.8-0.1 0.4 0.6 0 1.5-0.8 1.1-1.1 1.6-1.1 1.5-0.2 0 0.6 0.5 1.2 1 1.2 0.6 0 0.8-0.9 0.5-2-0.4-1.6 0.4-2.4 3.8-4 2.4-1.1 4.7-2.5 5.1-3 0.4-0.6 1.7-1 2.9-1zm13.4 1c1 0 2.1 0.2 2.6 0.5 0.4 0.3-0.1 1.4-1 2.6-1 1.1-2.5 1.9-3.4 1.7-1.3-0.2-1.5-0.8-0.8-2.5 0.5-1.3 1.6-2.3 2.6-2.3zm-32.7 20.3c0.7 1.2 0.6 2.4-0.5 4.2-0.8 1.4-1.4 3.7-1.3 5.2 0.1 1.6 1.4 3.9 2.8 5.3 1.5 1.4 2.9 3.1 3.1 3.8 0.3 0.8 2.6 1.3 6.6 1.5 4.3 0.1 6.4-0.2 6.8-1.1 0.3-0.6 1.2-1.2 2-1.2 1.2 0 1.3 0.6 0.7 2.7-0.7 2.3-1.4 2.8-3.5 2.5-1.5-0.1-2.7 0.1-2.7 0.5 0 0.5-2.8 0.7-6.2 0.6-3.8-0.1-7.8-0.9-10.1-2-2.7-1.3-4.1-2.7-4.7-5.1-0.6-1.7-1.4-3.2-2-3.2-0.6 0-0.8-2-0.5-5 0.3-2.8 0.7-5.4 1-6 0.3-0.6 1.6-0.8 3-0.5 1.4 0.3 2.5 0.1 2.5-0.5 0-0.6 0.5-0.8 1-0.5 0.6 0.3 1-0.3 1-1.3 0.1-1.6 0.1-1.6 1 0zm89.7 94.2c0.2 0.3-0.4 1.6-1.2 2.8-0.8 1.3-1.5 1.9-1.6 1.3 0-0.6-0.3-0.1-0.7 0.9-0.7 1.7-0.8 1.8-2.5 0.2-1.3-1.2-1.4-2-0.6-3.1 0.6-0.9 1.8-1.3 3-1 1 0.3 2.2 0 2.6-0.6 0.3-0.6 0.8-0.8 1-0.5zm258.6 28.8c1.2 0.2 2.3 1.2 2.6 2.3 0.2 1.1 0.9 2.3 1.7 2.7 0.8 0.5 1.4 1.7 1.4 2.8 0 1.1-0.5 2-1 2-0.6 0-0.8 0.4-0.5 1 0.3 0.6 0.9 0.8 1.5 0.5 0.5-0.3 1 0.4 1 1.5 0 1.1-0.7 2-1.5 2-0.8 0-1.6 0.5-1.8 1.1-0.1 0.6-2.5 1.4-5.2 1.6-2.8 0.3-6.2 0.3-7.8-0.1-2.6-0.6-2.7-0.8-2.7-7.4-0.1-5.9 0.1-6.6 1.5-5.5 1.2 1.1 2.1 0.8 5.1-1.8 2.1-1.8 4.5-2.9 5.7-2.7zm-345.1 3.8c0.7-0.1 1.9 0.6 2.5 1.5 0.7 0.8 1.6 1.4 2 1.4 0.5-0.1 1.6-0.1 2.5 0 0.9 0 2.2 1.2 2.7 2.6 0.7 1.6 0.8 2.5 0.1 2.5-0.6 0-0.7 1-0.2 2.7 0.5 1.6 0.5 4 0 5.5-0.4 1.6-1.3 2.8-1.8 2.8-0.6 0-1.2-0.7-1.5-1.5-0.4-1.1-2.1-1.5-6.8-1.5-4.1 0.1-6.5-0.4-6.9-1.2-0.4-0.7-0.8-1.9-0.8-2.6 0-0.6 0.4-1 1-0.7 0.5 0.3 1 0.1 1-0.5 0-0.6-0.5-1.8-1.1-2.8-0.9-1.3-0.8-2.3 0.7-4.5 1-1.5 2.1-2.7 2.4-2.7 0.4 0 0.5 0.7 0.3 1.5-0.1 0.8 0.4 1.5 1.2 1.5 0.8 0 1.5-0.9 1.5-2 0-1.1 0.6-2 1.2-2z"/>
		<path id="Path 5" class="s5" d="m303.7 135.8c0.2 1.2 0.8 2 1.3 1.7 0.6-0.3 1-0.2 1 0.2 0 0.5-0.4 1.3-0.8 1.9-0.4 0.6-1.6 1.4-2.7 1.8-1.7 0.7-1.9 0.5-1.1-1 0.5-1.1 1.1-3 1.4-4.4 0.6-2.4 0.6-2.4 0.9-0.3zm-230.5-0.7c0.4 0 1.9 0.6 3.2 1.2 1.4 0.7 2.3 1.9 2 2.5-0.2 0.7-1.7 1.3-3.4 1.3-1.8 0-3.2 0.6-3.5 1.5-0.3 0.8 0.1 2.1 0.7 2.8 0.7 0.8 2 1.6 2.8 2 1.2 0.4 1.2 0.6-0.3 0.6-0.9 0.1-2.4-0.1-3.2-0.4-1-0.3-1.6-2-1.7-4.8-0.1-2.7 0.3-4.8 1.2-5.5 0.8-0.7 1.8-1.2 2.2-1.2zm42.8 15.2c5-0.2 5.9 0.1 5.5 1.3-0.3 0.8-0.5 1.9-0.5 2.5 0 0.6-2.4 0.9-5.6 0.7-3.1-0.1-5.8 0.1-6 0.5-0.2 0.5-0.7 0.8-1.2 0.8-0.4 0-0.7-1-0.7-2.3 0-1.2 0.6-2.4 1.3-2.7 0.7-0.3 4-0.6 7.2-0.8zm-16.6 0.8c0.6-0.1 1.7 1.3 2.4 3 1 2.5 1 3.2-0.3 4.5-0.8 0.8-1.3 1.9-1 2.5 0.3 0.6-0.3 1-1.3 1-1 0-2.3 0.6-3 1.2-1 1-1.2 0.9-1.2-0.7 0-1.1 0.8-4.1 1.7-6.8 0.9-2.6 2.2-4.7 2.7-4.7zm3.4 16c0.1 0 0.2 0.4 0.2 1 0 0.6-1.6 2.6-3.5 4.5-1.9 1.9-3.5 4.2-3.5 5 0 0.8 0.7 1.8 1.6 2.2 1 0.5 1.4 1.8 1.2 3.8-0.2 2.4 0.2 3.3 2.2 4.3 1.4 0.7 4 1.2 5.8 1.2 1.7 0 3.2 0.4 3.2 1 0 0.6-1.2 1-2.7 1-1.6 0-3.4 0.4-4.1 0.8-0.7 0.4-1.2 2-1 3.7 0.2 2.3 0.9 3.1 2.6 3.2 1.2 0.2 3.1-0.6 4.2-1.7 1.1-1.1 2-2.4 2-3 0-0.6 0.5-1 1-1 0.5 0 0.8 1.1 0.5 2.5-0.5 2.3-0.2 2.5 2.8 2.5 1.7 0 3.5 0.3 3.9 0.7 0.4 0.4 0.1 2-0.7 3.5-0.8 1.6-1.3 3.7-1 4.8q0.5 2 3 2c1.4 0 2.9-0.8 3.4-1.8q0.8-1.7 2.2-0.8c1.1 0.6 1.1 1.1 0.2 2-1 0.8-0.9 1.4 0.5 2.3 0.9 0.6 1.3 1.5 0.9 2-0.5 0.4-4.1 0.7-8 0.7-4-0.1-8.1-0.4-9.2-0.8-1.1-0.3-2.8-1.9-3.8-3.6-1.2-2.2-2.2-2.9-3.7-2.5-1.1 0.3-2 1.2-2 2 0 1.2-0.3 1.2-1.9-0.3-1.2-1-2.5-4.9-3.6-10.2-1-4.7-1.9-12.6-2-17.5-0.2-4.9 0-9.7 0.5-10.5 0.5-0.8 1.4-1.2 2.2-0.9 0.7 0.4 2.4 0.1 3.8-0.7 1.4-0.7 2.6-1.3 2.8-1.4zm239.4 13c0.2 0 0.3 8.3 0.3 18.5 0 17-0.1 18.5-1.8 18.5-0.9 0-2.4-0.7-3.2-1.5-0.8-0.8-1.9-1.3-2.5-1-0.6 0.3-1 1.4-1 2.5 0 1.1-0.6 2-1.3 2-0.6 0.1-2.5-1-4.1-2.2-2.8-2.3-2.9-2.3-4.3-0.3-0.7 1.1-1.3 2.6-1.3 3.2 0 0.7-0.9 1.3-2 1.3-1.1 0-3.1-0.7-4.5-1.5-1.4-0.8-2.9-1.3-3.5-1-0.6 0.3-1 1.4-1 2.5q0 2-1.8 1.7c-0.9-0.1-2.3-0.6-3-1-0.6-0.4-1.2-1.1-1.2-1.7 0-0.6 0.4-0.8 1-0.5 0.6 0.3 1.9 0.3 3 0 1.1-0.3 2-1.2 2-2 0-0.8-0.9-1.9-2-2.5-1.1-0.6-2-1.4-2-2 0-0.6 0.6-0.8 1.2-0.6 0.7 0.2 1.8-0.2 2.4-0.8 0.9-0.8 0.7-1.4-0.7-2.4-1.1-0.6-1.9-2-1.9-3-0.1-1.5 0.1-1.5 1.5-0.2 0.8 0.8 1.9 1.2 2.3 0.7 0.4-0.4 0.1-1.3-0.6-2-0.7-0.6-1.2-1.4-1.2-1.7 0-0.3 1.5-0.5 3.3-0.5 2.8 0 3.2-0.3 3.2-2.7 0-1.5 0.6-3.3 1.2-4 1-1.1 1.6-1 3 0.4 1 1 2.1 1.8 2.5 1.8 0.5 0 0.6-0.9 0.3-2-0.3-1.1-0.1-2 0.5-2 0.6 0 1-0.8 1-1.8-0.1-1.3 0.2-1.4 1.2-0.5 1 0.9 1.9 0.6 4-1.3 1.6-1.3 2.8-3.1 2.8-3.9 0-1.1 0.9-1.4 3-1.3 1.7 0.2 3 0.7 3 1.3 0 0.6 0.5 0.3 1-0.5 0.5-0.8 1-2.5 1-3.8 0-1.2 0.1-2.2 0.2-2.2zm-55.6 12.2c0.2 1 0.8 1.8 1.2 1.8 0.4 0 1.2-0.5 1.8-1 0.5-0.6 2.2-0.8 3.8-0.4 2.1 0.4 2.9 1.2 2.8 2.6 0 1-0.6 1.7-1.1 1.4-0.6-0.3-0.9-1-0.6-1.6 0.3-0.6-0.2-1-1-1-0.8 0-1.3 0.4-1 1 0.3 0.6-0.4 1.2-1.5 1.5-1.5 0.4-1.8 0.9-1 2 0.7 1 0.6 1.6-0.1 1.7-0.8 0.2-1.3 3.8-1.5 10-0.3 8.1-0.1 9.9 1.1 10.3 0.8 0.3 2.3 0.7 3.2 1q1.8 0.5 0.8 1.6c-0.6 0.5-2.1 0.7-3.5 0.4-1.4-0.3-2.6-1.1-2.6-1.8-0.1-0.7-0.6-4.6-1.1-8.7-0.6-4.1-0.9-8.9-0.8-10.5 0.1-1.7 0.3-5 0.5-7.5 0.1-2.5 0.4-3.7 0.6-2.8zm-251.2 48.3c3.4 0.4 6.3 1 6.6 1.5 0.3 0.4 1.4 0.9 2.5 1.1 1.4 0.3 2.1 1.3 2.2 3.4 0.3 2.9 0.2 2.9-1 0.8-0.7-1.3-2.1-2.1-3.4-2-1.3 0.1-2.3 0.5-2.3 0.9 0 0.5-2.3 0.8-5 0.8-4.4 0-5.1-0.3-6-2.5-0.6-1.4-0.7-3-0.3-3.6 0.4-0.8 2.6-0.9 6.7-0.4zm-3.7 28.5c0.7 0 2.6 0.8 4.3 1.7 1.7 1.1 3 2.6 3 3.8 0 1.1-0.7 2-1.5 2-0.8 0-1.5-0.6-1.5-1.3 0-0.6-0.7-1.2-1.5-1.2-0.8 0-2.7-0.8-4.1-1.8-1.9-1.2-2.2-1.9-1.2-2.4 0.7-0.4 1.9-0.8 2.5-0.8zm56.9 1c0.8 0 1.4 0.3 1.5 0.7 0 0.5 0.2 1.6 0.5 2.5 0.3 1.2-0.3 1.9-1.9 2.3-1.2 0.2-2.3 0.3-2.4 0.2-0.1-0.1 0.1-1.4 0.4-3 0.3-1.5 1.1-2.7 1.9-2.7zm-25 3.2c1.2 2.1 1 2.3-1.4 2.8-1.9 0.4-2.8 1.2-3 2.8q-0.2 2.2-1.7 1.7c-0.8-0.3-2.9-0.5-4.5-0.5-2.7 0-3-0.3-3-3 0-1.6 0.3-3.2 0.7-3.4 0.5-0.3 3-0.7 5.8-1.1 2.7-0.3 5.2-0.8 5.5-1.1 0.2-0.2 1 0.6 1.6 1.8zm-0.9 17.9c0.9 0.6 1.1 2.1 0.5 4.8-0.4 2.6-0.3 4.3 0.5 5.2 0.6 0.8 1.1 2.8 1 4.5-0.1 1.7 0.3 3.7 0.9 4.5 0.6 0.8 1.5 3.2 1.9 5.4 0.7 4 0.7 4-1.4 2.2-1.2-0.9-2.4-1.5-2.9-1.2-0.4 0.2-2.6-0.3-4.9-1.3-2.4-1-4-2.2-3.7-3 0.2-0.6 1.2-1 2.1-0.7 1 0.2 2.3 0.1 3-0.3 0.7-0.4 0.9-1.2 0.5-1.7-0.4-0.6-2.1-1.7-3.7-2.4-1.7-0.8-3.3-1.4-3.8-1.3-0.4 0.1-1.2-1.2-1.7-2.8-0.6-1.6-0.8-3.7-0.5-4.5 0.3-0.8 1.1-1.5 1.7-1.5 0.7 0 2.8 0.9 4.5 2 2.5 1.5 3.5 1.7 3.9 0.7 0.4-0.6 0.7-3.1 0.8-5.4 0.1-3.1 0.4-3.9 1.3-3.2zm312.5 1c1.3-0.1 2 0.9 2.5 3.6 0.4 2.1 0.6 5.2 0.4 9.8l5-0.8c4.6-0.7 5-0.5 6.9 2 1.2 1.6 2.1 3.8 2 5 0 1.4-0.6 2.3-1.5 2.3-0.8 0-4.3-1.2-7.8-2.6-3.4-1.4-7-2.4-8-2.2-1 0.2-1.9 0.7-2 1.3-0.1 0.5 1.6 1.6 3.9 2.5 2.3 0.8 4.9 2.1 5.8 2.7 0.9 0.7 1.5 1.8 1.3 2.5-0.1 0.7 0.5 1.2 1.3 1.3 0.8 0 1.6 1 1.7 2.2 0.2 1.3-0.2 2.3-0.7 2.3-0.6 0-0.8-0.3-0.6-0.8 0.2-0.4-1-0.8-2.7-0.8-1.8-0.1-5.6-1.3-8.5-2.8-5-2.5-5.3-2.5-7.2-0.9-1.1 1-2 2.1-2 2.5 0 0.5 0.7 0.8 1.5 0.8 0.8 0 1.6 0.5 1.7 1.1 0.2 0.6 2 1 4 1 2.2-0.1 3.6 0.3 3.3 0.9-0.3 0.6 0.3 1.7 1.2 2.5 1.7 1.3 1.6 1.4-1.2 1.6-1.6 0.1-3.7 0-4.5-0.1-0.8-0.1-1.6-0.6-1.8-1.1-0.1-0.5-1-0.9-2-0.9-0.9 0-2.2-0.4-2.7-0.9-0.6-0.5-1.9-1.1-3-1.3-1.5-0.2-2.1-1.3-2.6-4.8-0.3-2.5-0.4-5.1-0.2-5.8 0.2-0.7 1.1-1 2.5-0.5 2.2 0.6 2.3 0.5 1.5-4-0.4-2.6-0.4-6.2-0.1-8 0.4-1.7 0.9-2.7 1.3-2.1 0.3 0.6 1.7 1.4 3.1 1.7 2.4 0.6 2.5 0.4 2.2-3.8-0.2-4 0.1-4.5 2-4.9 1.3-0.2 3.1-0.4 4-0.5zm-35.6 7.9c1.1 1 1.3 2.1 0.8 3.3-0.8 1.7-1 1.7-2.2 0.3-0.6-0.9-1-2.4-0.7-3.4 0.5-1.5 0.7-1.5 2.1-0.2zm0.4 16.2c1.1-0.1 2.2 0.2 2.5 0.8 0.3 0.6 0.9 0.8 1.5 0.5 0.5-0.3 1.4 0.4 2 1.5 0.7 1.4 0.7 2.2-0.3 2.6-0.6 0.3-2.5 0-4.2-0.8-1.6-0.7-3.1-2-3.3-2.8-0.1-0.9 0.6-1.6 1.8-1.8zm-195.8 27.9c1-0.1 1.8 0.6 1.8 1.4 0 0.8-0.7 1.7-1.5 2-0.8 0.3-1.3 1.2-1 2 0.3 0.8-0.9 3-2.5 4.7-1.7 1.8-3 3.6-3 4 0 0.5 1.3 0.8 3 0.8 1.6 0 3.2 0.3 3.4 0.7 0.3 0.5 0.2 1.3-0.2 1.9-0.4 0.6-2.3 1.4-4.2 1.7-1.9 0.4-4.9 0.3-9.5-1l2.7-0.6c1.6-0.4 2.8-1.1 2.8-1.7 0-0.6-0.7-1-1.5-1-0.8 0-1.9-0.9-2.5-2q-1-2 0-2.5c0.6-0.3 1-2.5 1-5 0-4.4 0-4.5 2.4-3.3 2.1 1.1 2.9 1 4.8-0.4 1.3-0.9 3.1-1.7 4-1.7z"/>
		<path id="Path 6" class="s6" d="m99.4 99.1c0.6 0.9 1.7 1.4 2.3 1.2 0.7-0.1 1.3 0 1.3 0.5 0 0.4-0.9 1.3-2 2-1.8 1-2 1-2-0.8 0-1.1-0.5-2-1-2-0.6 0-0.7-0.6-0.3-1.2 0.4-1 0.9-0.9 1.7 0.3zm17.9 4.4c1.2 0.8 3.7 1.5 5.5 1.7 1.7 0.2 3.2 0.5 3.2 0.8 0 0.3-0.6 1.3-1.3 2.2-0.7 1-2.2 2-3.5 2.3-1.3 0.3-2.7-0.1-3.5-1-0.6-0.9-1.8-1.6-2.5-1.5-0.6 0-1.4-0.7-1.7-1.5-0.3-0.8 0-2.2 0.6-3 0.9-1.2 1.3-1.2 3.2 0zm-26.8 4.5c0.3 0 0.4 0.8 0.4 1.8-0.1 0.9 0 1.9 0.1 2.2 0.1 0.3 0.3 1.3 0.6 2.3 0.3 1.3-0.1 1.6-1.6 1.2-1.1-0.3-2 0-2 0.5 0 0.6-0.7 1.2-1.5 1.5-0.8 0.3-1.5 0.2-1.5-0.2 0-0.5 0.8-1.7 1.8-2.8 1-1.1 2.2-3 2.6-4.2 0.4-1.3 0.9-2.3 1.1-2.3zm-39.6 2c1.2 0 2.5 0.8 3 1.8 0.5 0.9 0.7 2.2 0.3 2.9-0.5 0.8-1.4 0.7-3.2-0.3-2.3-1.4-2.3-1.5-0.3-1 1.3 0.3 2.3 0.2 2.3-0.4 0-0.5-0.7-1-1.5-1-0.8 0-1.8-0.4-2.1-1-0.3-0.5 0.3-1 1.5-1zm46.6 2.8c2 1.5 2.1 1.8 0.7 2.4-1 0.4-2.3 0.7-3 0.7-0.6 0.1-1.4-0.7-1.7-1.6-0.3-1-0.1-2.1 0.6-2.5 0.6-0.3 2.1 0.1 3.4 1zm21.7-0.4c3 0 5.6 0.5 5.7 1.1 0.1 0.5-0.4 2.5-1.1 4.3-0.7 1.8-1.6 2.9-2.1 2.5-0.4-0.4-0.8 0.1-0.8 1.2-0.1 1.1-0.1 2.6 0 3.3 0 0.6-0.7 2.1-1.7 3.2-0.9 1.1-2.3 2-3 2-0.6 0-1.4 0.7-1.7 1.5-0.3 0.8-1.5 1.5-2.8 1.5-1.8 0-1.9-0.2-0.7-1 1.2-0.8 1.1-1-0.8-1-1.2 0-2.4-0.4-2.7-1-0.3-0.6 0.1-1.7 0.7-2.6 1.1-1.2 1-1.7 0-2.2-1-0.6-1-1 0.2-1.9 1.3-1.1 1.7-0.9 2.4 1 0.5 1.2 1.6 2.5 2.5 3 1 0.4 2.4 0.7 3.2 0.7 0.8 0 1.7-0.9 2-2 0.4-1.6-0.1-2.1-2.8-2.3-2.8-0.4-2.9-0.5-1-1 1.4-0.4 2.3-1.5 2.3-2.7 0-1.1-0.4-2.1-0.8-2.2-0.5-0.2-1.3-1.5-1.7-2.9-0.9-2.6-0.8-2.6 4.7-2.5zm-59.7 4.1c2.4 0 3.5 0.5 3.6 1.5 0 1.1 0.2 1 0.7-0.3 0.7-1.7 0.8-1.7 2.9 0.3 1.7 1.5 2.7 1.7 3.8 1q1.5-1 2 0c0.3 0.6-0.3 1.3-1.2 1.7-1 0.3-2.1 0.5-2.5 0.5-0.5-0.1-0.8 0.7-0.8 1.8 0 1.5 0.4 1.8 1.8 1.3 1.3-0.6 1.5-0.5 0.7 0.7-0.8 1.2-0.6 1.3 0.8 0.7 0.9-0.4 1.9-0.2 2.2 0.3 0.3 0.6 1 1 1.5 1 0.5 0 1-0.7 1-1.5 0-1.2 0.6-1.3 3-0.5 1.7 0.6 3 1.5 3 2 0 0.6-0.5 1-1 1-0.5 0-1.2-0.4-1.5-1-0.3-0.5-0.8-1-1.3-1-0.4 0-1.3 1.2-2 2.7-0.7 1.5-1.1 2.9-1 3.1 0.2 0.1 1.6 0.3 3.3 0.4 2.3 0.1 3 0.6 3.2 2.2 0.1 1.2-0.3 2.4-1 2.8-0.7 0.4-2.4 0-4-0.8-1.5-0.8-3.7-1.1-5-0.8-1.2 0.3-3.9 0-6-0.7-2.1-0.8-3.7-1.8-3.7-2.4 0-0.6-1.6-0.9-3.5-0.7-2 0.1-3.7 0.8-4 1.7-0.3 1-1.1 1.2-2.1 0.8-0.8-0.5-1.3-1.4-1-2 0.3-0.7 0.1-1.3-0.4-1.3-0.5 0-1-0.9-1-2 0-1.4 0.7-2 2.3-2q2.2 0 0.9-0.8c-0.8-0.4-1.1-1.7-0.7-3.4 0.3-1.6 1-2.8 1.5-2.8 0.5 0 1.3 1.1 1.8 2.5 0.4 1.4 1.3 2.8 2 3 0.6 0.3 1.2-0.2 1.2-1 0-0.8-0.7-2.2-1.5-3-0.8-0.8-1.5-2.3-1.5-3.2 0-1.4 0.8-1.8 3.5-1.8zm35.5 0.5c1.2 0 2.2 0.9 2.6 2.3 0.3 1.2 0.3 2.4-0.1 2.7-0.3 0.3-0.5-0.1-0.5-0.7 0-0.7-0.7-1.3-1.5-1.3-0.8 0-1.7-0.7-2-1.5-0.2-1 0.3-1.5 1.5-1.5zm5 7.5c0.4 0.3 0.5 2.5 0.3 4.8-0.1 2.3-0.5 4.3-0.8 4.5-0.3 0.1 0.6 1.4 1.9 3 2.3 2.5 2.4 2.8 0.8 3.8-0.9 0.7-2.3 0.9-3.1 0.5-0.7-0.3-1.2-0.2-1.1 0.4 0.1 0.6 0.2 1.6 0.1 2.3 0 0.6-0.9 1.5-1.8 1.8-1.4 0.5-1.6 0.2-1-1 0.4-0.9 0.3-1.6-0.3-1.6-0.5 0-1.2-0.7-1.5-1.5q-0.5-1.5 1.2-1.2c1.1 0.1 1.9-0.6 2.1-1.8 0.3-1.6 0.1-1.8-0.9-0.7-0.7 0.6-1.9 1.2-2.6 1.2-0.7 0-1.5-0.8-1.8-1.7-0.3-1 0-2.1 0.7-2.5 0.8-0.4 1-1.3 0.6-2.2-0.5-1-0.3-1.8 0.7-2.1 0.8-0.3 2.1-0.3 2.8 0 0.7 0.4 1.5-0.7 2.1-3 0.4-2 1.2-3.3 1.6-3zm6.3 10c2.3 0 2.7 0.3 2.2 2-0.3 1.1-0.7 2.5-0.8 3.2-0.1 0.6-0.8 1.8-1.6 2.5-1.2 1.1-1.3 1-0.7-0.4 0.3-1 0.1-2-0.4-2.3-0.5-0.3-1.1-1.5-1.2-2.7-0.3-1.9 0.2-2.3 2.5-2.3zm-82.7 14c0.1 0.1 0 1.4-0.2 2.9-0.2 1.4-0.8 2.4-1.4 2.1-0.5-0.3-1.1 0-1.2 0.7-0.2 0.6-0.9 0.9-1.5 0.5-1-0.5-0.6-1.5 1.4-3.6 1.4-1.6 2.7-2.8 2.9-2.6zm51 53.8c0.2 0.9 1.1 1.7 1.9 1.7 0.8 0 2.3 0.3 3.3 0.7 1.2 0.5 1.5 0.4 1-0.5-0.5-0.6-0.3-1.2 0.2-1.2 0.6 0 1 0.4 1 1 0 0.6 0.7 0.8 1.5 0.5 0.8-0.3 1.5 0.1 1.5 0.8 0.1 0.7 0.5 0.5 1.3-0.5 0.7-1 1.5-1.7 2-1.8 0.4 0 0.7 0.9 0.7 2 0 1.1 0.6 2 1.3 2.1 0.6 0 2.1 0.2 3.2 0.4 1.1 0.2 2.2-0.1 2.5-0.6 0.3-0.5 2.1 0.5 4 2.3q3.5 3.2 7 3.4c1.9 0.2 5.2 0.3 7.3 0.3 2.1 0.1 3.5 0.5 3.2 1.1-0.3 0.6-1.5 1-5 1l2.3 1.5c1.2 0.8 2.2 1.9 2.2 2.5 0 0.6 0.9 2 2 3.3 1.1 1.2 2 1.6 2 1 0-0.7 0.9-1.3 2-1.3 1.1 0 1.8-0.4 1.5-1-0.3-0.6 0-1 0.5-1 0.6 0 1 0.8 1 1.8 0 0.9 0.3 2.1 0.7 2.5 0.5 0.5 0.9 1.8 1 3 0.1 1.2 0.6 4.4 1 7 0.7 4.4 0.5 5.3-2.3 9.5-1.7 2.6-3.8 5-4.7 5.5-1 0.4-1.7 0.3-1.7-0.3 0-0.6-0.8-1-1.7-1-1 0-2.6 0.9-3.5 2-1 1.1-2.5 2-3.3 2-0.8 0-1.5-0.6-1.5-1.2 0-0.7 0.3-1 0.7-0.6 0.5 0.4 1.3 0 2-1 0.7-0.9 1.3-2.1 1.3-2.7 0.1-0.6-0.6-0.4-1.5 0.3-0.8 0.6-1.9 1-2.5 0.7-0.5-0.3-1.7-0.1-2.5 0.5-0.8 0.6-1.2 1.6-0.9 2.3 0.3 0.6-0.3 1.6-1.3 2-1.1 0.5-1.9 0.4-2-0.2q-0.3-1.1-1.8-0.1c-0.8 0.6-2.4 0.8-3.5 0.5-1.2-0.3-2.2 0.1-2.5 1-0.3 0.8-1.4 1.5-2.5 1.5-1.3 0-2.3-1-2.9-2.7-0.6-1.6-0.7-3.1-0.4-3.5 0.4-0.5 0.1-0.8-0.5-0.8-0.7 0-1.4-0.9-1.7-2-0.3-1.1-1-1.8-1.7-1.4-0.7 0.3-1.6-0.2-2-1-0.5-0.9-1.4-1.6-2-1.6-0.7 0.1-2.1-0.7-3.1-1.7-1.1-1.1-1.6-2.6-1.3-3.8 0.4-1.2-0.1-2.9-1.4-4.2-1.1-1.3-1.7-2.5-1.3-2.8 0.3-0.3 0.1-0.5-0.5-0.5-0.7 0-1-1-0.8-2.2 0.2-1.3-0.1-4.5-0.8-7.3-0.6-2.7-2.1-5.9-3.2-7-1.1-1.1-2.3-2.7-2.7-3.5-0.5-1.1-0.8-1.2-1.2-0.2-0.3 0.6-1.3 1.2-2.2 1.2-1.6-0.1-1.5-0.3 0.5-2 1.2-1.1 2-2.7 1.7-3.5-0.3-0.8 0-1.5 0.5-1.5 0.6 0 1 1 1 2.3 0 1.7 0.2 1.9 1.2 1 0.7-0.7 2.2-1.3 3.5-1.3 1.7 0 2.3-0.6 2.4-2.2 0.1-1.6 0.2-1.8 0.5-0.5zm-35.4 95.8c0.4 1.9 0.2 3.5-0.3 3.7-0.5 0.1-0.9 0.8-0.9 1.5 0.1 0.6-0.6 1.8-1.5 2.5-0.9 0.7-1.7 0.8-2 0.2-0.3-0.5 0.3-1.4 1.3-1.9 1.5-0.8 1.5-1.3 0.5-3.5-1.1-2.2-1-2.8 0.5-4.3 1.6-1.5 1.7-1.4 2.4 1.8zm289.8-1.1c1.5 0 3.8 1.3 5.8 3.2 2.3 2.3 3 3.6 2.2 4.3-0.6 0.6-1 1.8-1 2.8 0 0.9 0.7 1.9 1.5 2.2 0.8 0.3 1.5 1.1 1.5 1.8 0 0.7-1.1 1.1-2.5 1q-2.5-0.3-2.5 1.2c0 1.2-0.9 1.4-4.3 1-2.3-0.4-5.7-0.6-7.5-0.5-2.7 0-3.3-0.4-3.8-2.7-0.3-1.6 0-4.2 0.7-5.8 0.7-1.6 2.7-4.2 4.4-5.7 1.6-1.6 4.1-2.8 5.5-2.8z"/>
		<path id="Path 7" class="s7" d="m371.6 54c0.2 0 0.3 4.2-0.1 18.5l2.7-0.3c2.2-0.1 2.8 0.2 2.8 1.8 0 1.1-1.1 3-2.5 4.3-1.4 1.2-2.6 2.7-2.6 3.2 0 0.5 0.7 1.7 1.6 2.5 0.9 0.8 1.4 2.1 1.1 2.8-0.3 0.6-0.2 1.4 0.4 1.7 0.5 0.3 1 1.6 1 3 0 2.2-0.3 2.4-2 1.5-1.1-0.5-2.2-0.9-2.4-0.7-0.3 0.1-0.7 8.1-1 17.7-0.4 9.6-0.6 23.9-0.6 31.8 0 7.8-0.3 14.2-0.8 14.2-0.4 0-0.8 4.6-0.8 10.2-0.1 5.7-0.4 11.3-0.8 12.6-0.3 1.2-1.1 2.2-1.6 2.2-0.6 0-0.9-2.9-0.8-7.1 0.2-3.9 0-7.3-0.5-7.5-0.4-0.2-0.3-1 0.3-1.6 0.5-0.7 1.2-13.9 1.5-29.3 0.4-15.4 0.7-32.6 0.8-38.3 0.1-5.6-0.1-10.2-0.6-10.2-0.4 0-1.7 1.1-3 2.5-2 2.2-2.4 2.4-3.7 1-1.3-1.4-1.3-1.8 0.5-3.5 1.1-1.1 1.8-2.2 1.5-2.5-0.3-0.3-2.1-0.6-4-0.7-1.9-0.1-4 0.1-4.5 0.5-0.6 0.4-2.1-0.4-6-4.2l3-0.6c1.6-0.3 3.4-0.5 4-0.4 0.5 0.1 2.2 0.1 3.7 0 2.6-0.1 2.8-0.3 2.3-3.6-0.3-2.4-0.1-3.5 0.7-3.6 0.7-0.1 2.2-0.2 3.3-0.3 1.8-0.1 2.1-1 2.6-7.6 0.3-4.1 0.6-7.1 0.6-6.5 0.1 0.5 0.8-0.1 1.8-1.3 0.9-1.2 1.8-2.2 2.1-2.2zm-234.6 10.5c5.2 0.1 10.6 0.8 12 1.4 1.4 0.6 8.3 2.3 15.5 3.7 7.1 1.5 15.9 3.2 19.5 4 3.6 0.7 11.7 1.5 18 1.7 6.3 0.2 12.2 0.8 13 1.2 1.2 0.7 1.2 1-0.5 1.5-1.1 0.3-7.2 0-13.5-0.7-6.3-0.7-16.5-2-22.5-2.9-6.1-0.8-13.5-2-16.5-2.5-3-0.6-6.1-0.8-6.8-0.5-0.6 0.3-1.4 1.8-1.7 3.3-0.2 1.6-1 3.3-1.7 3.9-0.7 0.6-3.1 1.6-5.3 2.3-2.2 0.7-4.6 1.4-5.3 1.7-0.7 0.2-1.1-0.4-1-1.9 0.2-1.5 1.1-2.3 2.8-2.5 1.4-0.2 3.1-0.9 3.8-1.5 1-1 1-1.5 0-2.5-0.7-0.7-2.3-1.2-3.5-1-1.2 0.2-2.2 0-2.3-0.5 0-0.4-0.8-1.4-1.8-2.2-0.9-0.8-1.3-1.4-0.7-1.4 0.5 0 0.3-0.7-0.5-1.6-0.8-0.9-2.6-1.6-4-1.6-1.4 0-3.4-0.4-4.5-0.9-1.3-0.6 1.5-0.8 7.5-0.5zm154.4 17.1c3.2 0.2 6.2 1 7.1 1.9 0.8 0.8 1.5 1.6 1.5 1.7 0 0.2-2.6 0.2-5.8 0-3.1-0.1-6.3-0.8-7-1.5-0.7-0.7-1.3-1.5-1.4-1.8 0-0.4 2.5-0.5 5.6-0.3zm-146.9 2.5c0.5 0 1.7 0.4 2.5 0.9 0.8 0.5 1 1 0.5 1-0.6-0.1-0.1 0.9 1 2.1 1.4 1.5 2.1 3.8 2.2 7.5 0.3 4.6 0 5.4-1.5 5.4-0.9 0-2.4 0.5-3.2 1.1-1.2 0.8-0.9 0.9 1.2 0.5 2.1-0.5 2.9-0.2 3.3 1.1 0.3 1 0.1 3-0.5 4.5-0.5 1.6-1.5 3-2 3.3-0.6 0.3-2.7-1.1-4.8-3-2-1.9-3.8-3.3-4-3-0.1 0.3 1.2 2.2 5.9 8l-2.3 1.8c-1.3 1-3.3 1.8-4.6 1.7-1.2 0-2.4 0.3-2.6 0.7-0.3 0.5-2.1 5.3-4.2 10.8-2 5.5-4.5 12.2-5.5 15q-1.7 5-4.1 5.9c-1.8 0.7-2.8 0.4-4.7-1.5-2-2-2.3-3-1.7-6.2 0.4-2.3 0.2-3.5-0.4-3.2-0.6 0.3-1.1-0.6-1.3-2-0.2-1.9 0.3-2.5 2.5-3 1.6-0.3 2.8-0.9 2.8-1.5 0-0.6 0.7-1 1.5-1 1 0 1.6-1.2 1.7-4.1 0.2-2.2 0-4.3-0.5-4.5-0.4-0.2-0.7-0.9-0.7-1.4 0-0.6 0.3-0.8 0.7-0.6 0.5 0.3 1.5-1.3 2.3-3.5 0.8-2.2 1.8-3.9 2.2-3.9 0.5 0 0.8 1.1 0.8 2.5 0 1.4-0.5 3.4-1 4.5q-1 2 0 2.5c0.5 0.3 1.2-0.4 1.5-1.5 0.3-1.1 0.9-2 1.5-2 0.5 0 0.8-0.5 0.5-1-0.3-0.6 0.2-1 1-1 1.1 0 1.4-0.8 1-3.5-0.4-2.8-0.2-3.4 1-3 0.8 0.3 1.5-0.1 1.5-0.8 0-0.6 0.9-3.1 2-5.5 1.8-3.7 1.8-4.4 0.5-5.7-1.3-1.3-1.3-1.9-0.1-4.3 0.7-1.5 2.1-3.4 3-4.2 0.9-0.8 1.6-2.3 1.4-3.2-0.1-0.9 0.5-1.9 1.2-2.1 0.8-0.3 1.9-0.6 2.5-0.6zm-58.2 41.9c0.7-0.1 1.8 0.6 2.4 1.5 1 1.2 1 1.8 0 3-0.6 0.9-1.5 1.6-2 1.5-0.4 0-1.2-0.9-1.7-2-0.6-1.1-0.8-2.5-0.5-3 0.4-0.5 1.1-1 1.8-1zm57.1 11.6c0.6 0.5 2.7 0.7 4.6 0.6 1.9-0.1 4.1 0.3 4.7 0.8 1 0.8 0.8 1.9-1 5-1.3 2.4-3.1 4.3-4.5 4.5-1.2 0.3-3-0.1-4-0.8-1.2-0.8-1.7-2.5-1.6-5.2 0-2.2 0.2-4.4 0.3-4.8 0.2-0.5 0.8-0.5 1.5-0.1zm223.2 44.4c0.3 0 0.3 3.5 0.1 7.8-0.3 4.2-0.6 7.7-0.6 7.7-0.1 0-0.3 4.5-0.6 10-0.3 5.5-1 11.7-1.5 13.8-0.6 2.2-1.6 3.7-2.5 3.7-1.1 0-1.3-0.7-0.9-2.8 0.3-1.5 0.7-5 0.9-7.7 0.3-2.8 0.8-8.4 1.2-12.5 0.4-4.1 0.7-9.2 0.7-11.3 0.1-2.1 0.7-4.1 1.4-4.5 0.7-0.4 1.2-1.1 1.1-1.7-0.1-0.6-0.1-1.3 0-1.8 0-0.4 0.4-0.7 0.7-0.7zm-4.6 45.2c1.6 1.1 1.9 2.2 1.6 6.8-0.2 3-0.8 9.4-1.2 14.2-0.6 5.4-1.4 9-2.2 9.3-0.9 0.4-1.2-1.1-1.2-5.5 0-3.3 0.3-6 0.7-6 0.5 0 0.7-1.6 0.5-3.5-0.1-1.9 0.2-3.5 0.8-3.5 0.5 0 1-0.4 1-1 0-0.6-0.7-1-1.5-1-1 0-1.3-0.7-1-2.3 0.3-1.2 0.5-3.7 0.5-5.5 0-2.9 0.2-3.1 2-2zm-294 25.8c0.5 0 1.9 0.9 3 2 1.1 1.1 1.7 2.1 1.2 2.1-0.4 0.1-1 0.1-1.5 0-0.4 0-0.7 1-0.7 2.4 0 1.4-0.3 2.5-0.8 2.5-0.4 0.1-1.3-0.6-2-1.5-0.6-0.8-1.7-1.3-2.2-1-0.6 0.3-1 0.1-1-0.5 0-0.6 0.4-1 1-1 0.5 0 0.8-0.4 0.5-1-0.3-0.6-0.1-1 0.5-1 0.5 0 1-0.7 1-1.5 0-0.8 0.4-1.5 1-1.5zm48.7 38c1.2 0 1.7 1 1.9 3.2 0.1 1.8 0.2 7.7 0.1 13-0.1 6 0.2 9.8 0.8 9.8 0.5 0 0.1 0.6-1 1.2-1.1 0.7-3.7 1.4-5.8 1.5-3.7 0.3-3.7 0.3-4.2-4-0.2-2.3-0.6-5.9-0.7-7.9-0.2-2.1-0.1-3.9 0.2-4 0.3-0.2 1.3-1.8 2.2-3.6 1-1.7 1.8-3.8 1.8-4.5q0-1.2-1 0.3c-0.8 1.3-1 1.2-1-0.3 0-1 1-1.9 2.5-2.2 1.4-0.3 2.5-0.9 2.5-1.5 0-0.6 0.8-1 1.7-1zm-29.7 5c0.6 0 1.4 2.4 1.8 5.2 0.3 2.9 0.6 6.2 0.7 7.2 0 1.1-0.5 2.1-1 2.3-0.6 0.1-1.6-0.1-2.3-0.5-0.7-0.4-1.5-3.1-1.8-6-0.2-3.1 0-5.2 0.6-5.2 0.5 0 1-0.7 1-1.5 0-0.8 0.5-1.5 1-1.5zm42.5 25c0.1 0 0.1 2.6-0.1 5.7-0.2 3.2-0.6 6-0.9 6.3-0.3 0.3-0.6-2-0.7-5.1-0.1-3.1 0.2-5.9 0.7-6.2 0.5-0.4 0.9-0.7 1-0.7zm-12.8 3.2c1 0.8 1.2 3.8 0.8 14.2-0.3 7.2-0.8 14.8-1 16.8-0.5 3.6-0.7 3.8-3.8 3.5-2.8-0.2-3.2-0.5-2.9-2.7 0.2-1.4-0.5-3.3-1.5-4.3-1.3-1.3-1.5-2-0.6-2.5 0.9-0.5 1.2-4 1-11.9-0.2-10.7-0.1-11.3 1.8-11.3 1.1 0 2.6-0.7 3.4-1.5 1.1-1.1 1.7-1.2 2.8-0.3z"/>
		<path id="Path 8" fill-rule="evenodd" class="s8" d="m238.3 73.2c0.7 1 2 1.7 2.9 1.8 1 0 1.8-0.5 1.8-1 0-0.6 3.8-1.1 9.2-1.1 5.1-0.1 10.7-0.2 12.3-0.1 1.6 0 4.5 0.2 6.2 0.3 1.8 0.2 3.3 0.7 3.3 1.1 0 0.5 1.9 0.8 4.2 0.8 3.5-0.1 4.8 0.5 7 3 1.8 1.9 2.4 3.1 1.5 3.3-0.9 0.3-0.8 0.8 0.3 2.1 0.8 0.9 2.6 1.7 4 1.8 1.5 0 1.8 0.2 0.7 0.4-1.5 0.4-1.7 1.6-1.5 11.9 0.2 8.4 0.6 11.5 1.5 11.5 0.7 0 1.3 1.2 1.3 2.7 0 2.8 0 2.8-8.7 3.5-4.9 0.3-13.1 0.5-18.3 0.3-5.2-0.1-10.4 0.1-11.5 0.5-1.3 0.6 0.4 0.9 5 0.9 3.9 0 7.4 0.4 7.8 0.8 0.5 0.4 4.5 1.5 17.2 4.1l-10 0.2c-5.5 0.2-16.8 0.2-25 0-8.3-0.1-15.8-0.6-16.8-1.1-0.9-0.5-1.9-0.9-2.2-0.9-0.3 0-0.3 0.4 0 1 0.3 0.5-0.2 1.2-1 1.5-1.1 0.4-1.5-0.2-1.5-2 0-2.1 0.6-2.6 4.5-3.5 2.5-0.6 7.8-1 11.7-1 4 0 8-0.5 8.8-1.1 1.1-0.7-2.3-0.9-11.7-0.7-7.3 0.2-13.3 0-13.3-0.5 0-0.4-0.3-1.5-0.7-2.5-0.5-1.2-0.4-1.5 0.5-1 0.9 0.6 1.3-1.8 1.7-9.7 0.3-6.5 0.9-10.3 1.5-10 0.6 0.3 1-0.2 1-1 0-0.9 0.5-1.2 1.2-0.8 0.9 0.6 1 0.3 0.5-1-0.4-1-0.2-1.9 0.5-2.1 0.7-0.3 0.5-0.5-0.5-0.5-1-0.1-1.7-0.9-1.7-2.1 0-1.1-0.4-2-1-2q-1 0 0-2.5c0.5-1.4 1.9-2.8 3-3 1.1-0.3 2.3-1.3 2.6-2.3 0.5-1.6 0.6-1.6 1.7 0zm-1.6 50.2c0.7 0.3 12.7 0.8 26.5 1.1 13.9 0.3 25.9 0.5 26.5 0.5 0.7 0 1.3 1.1 1.3 2.5 0 1.8-0.9 2.9-3.3 4-1.7 0.9-5.9 1.5-9.2 1.5-3.3 0-11.2-0.3-17.5-0.8-8.4-0.6-13.8-0.4-20 0.6-4.7 0.7-9.6 1.6-11 1.9-2 0.4-2.6 0-3.2-1.8-0.4-1.3-0.8-2.8-0.8-3.4-0.1-0.6 1.3-1.6 3-2.3 1.9-0.7 2.7-1.6 2.2-2.4-0.5-0.8-0.1-1 1.5-0.5 1.4 0.4 2.4 0.3 2.5-0.4 0-0.6 0.7-0.8 1.5-0.5zm-24.2 5.5l4.8 0.2c4.5 0.3 4.8 0.4 4.7 3.1 0 1.8-0.5 2.8-1.5 2.8-0.8 0-1.5-0.4-1.5-1 0-0.6-0.6-1-1.3-1-0.6 0.1-2.1-0.9-3.2-2zm-113.8 137.3c0.2-0.1 0.3 0.3 0.3 0.8 0 0.6-0.8 1.1-1.7 1.3-1.6 0.2-1.6 0.3 0 2 1 1 1.3 1.9 0.7 2.2-0.6 0.3-1.4-0.3-1.9-1.2-0.5-1-1.3-1.6-1.8-1.4-0.4 0.3-0.9-0.3-1.1-1.2-0.1-1.2 0.6-1.8 2.5-2 1.6-0.2 2.9-0.5 3-0.5zm25.1 30.8c0.4 0 0.6 0.7 0.5 1.5-0.2 0.8 0.3 1.5 0.9 1.5 0.7 0 1.2 1 1.2 2.3-0.1 1.2 0.1 2.7 0.5 3.2 0.3 0.6 0.7 2.6 0.9 4.5 0.2 1.9 0.4 5.5 0.5 8 0 2.5-0.2 9.7-0.5 16-0.4 6.3-0.8 11.6-1 11.7-0.2 0.1-1-0.2-1.8-0.7-1.2-0.7-1.5-3-1.3-11.5 0.2-5.8 0.1-10.5-0.2-10.5-0.3 0-1.7 0.5-3.3 1-1.8 0.7-3 0.7-3.7 0q-1-0.9-3 0.5c-1.1 0.8-3 1.5-4.3 1.5-1.8 0-2.1-0.4-1.7-2.5 0.3-1.6 0-2.5-0.8-2.5-0.9 0-0.9-0.2 0-0.8 0.6-0.4 3.1-0.6 5.5-0.5 3.1 0.1 5.1-0.5 7.1-2 1.5-1.2 3-3.1 3.2-4.2 0.2-1.1 0.4-5.3 0.4-9.2 0.1-4 0.4-7.3 0.9-7.3zm-17.6 5.1c1.5 0.7 2.1 1.9 2 3.5-0.1 1.4-0.8 2.4-1.7 2.4-0.8 0-1.7 0.6-1.9 1.3-0.3 0.6-0.5 0.4-0.5-0.5-0.1-1 0.7-1.9 1.6-2 1.6-0.3 1.6-0.4 0-2-0.9-1-1.7-2.2-1.7-2.8 0-0.6 0.8-0.6 2.2 0.1zm-22.7 5.9c0.8 0 1.5 0.2 1.5 0.5 0 0.3 0.3 1.3 0.7 2.3 0.5 1.2 0.4 1.5-0.5 1-0.7-0.5-1.3-0.1-1.5 1-0.3 1.4-0.6 1.2-1.4-0.8-0.6-1.4-0.9-2.8-0.6-3.2 0.2-0.5 1.1-0.8 1.8-0.8zm24.5 6.9c0.5 0.9 0.9 1.9 0.9 2.4 0.1 0.4-0.7 0.7-1.7 0.7-0.9 0-2-0.3-2.4-0.7-0.5-0.4-0.1-1.5 0.8-2.4 1.4-1.5 1.6-1.5 2.4 0zm-7.5 0.1c0.3 0 0.9 1.1 1.5 2.5 0.5 1.4 1.4 2.3 2 2 0.5-0.3 1 0 1 0.5 0 0.6-1.1 1.2-2.5 1.5q-2.5 0.5-2 2c0.4 1.2-0.4 1.4-4.3 1.1-3.9-0.4-5-0.9-6.7-3.6-1.1-1.7-1.6-3.4-1.1-3.8 0.5-0.4 1-0.1 1.2 0.6 0.2 0.6 1.5 1.2 2.7 1.2 1.8 0 2.2 0.4 1.5 1.5-0.4 0.8-0.5 1.7-0.1 1.9 0.5 0.2 1.7 0 2.8-0.4 1.1-0.4 2.3-2.1 2.7-3.8 0.4-1.8 1-3.2 1.3-3.2zm-5.8 0.9c1.7 0.5 2.9 1.5 3.1 2.7 0.2 1.1 0 1.5-0.5 0.8-0.4-0.6-2-1.4-3.6-1.7-1.5-0.4-2.5-1.1-2.3-1.6 0.3-0.5 1.7-0.6 3.3-0.2zm9.3 10.6c0.4 1.1 0.4 2.8-0.1 3.8-0.6 1-0.5 2.2 0.1 3 0.7 0.8 0.6 1.6-0.5 2.5-1.2 1-1.6 0.9-2-0.3-0.3-0.8-0.2-3 0.1-4.7 0.3-1.8 0.8-4 1.1-4.8 0.4-1.2 0.7-1.1 1.3 0.5zm3 3.5c1.7 0 2 0.7 1.8 4.3-0.1 3.5-0.2 3.6-0.5 1-0.2-2.5-0.8-3.3-2.3-3.3-1.1 0-1.8-0.4-1.5-1 0.4-0.5 1.5-1 2.5-1zm-2.1 14c1.1 0 2.1 0.5 2.1 1 0 0.6 0.4 0.8 1 0.5 0.5-0.3 1 0.4 1 1.5 0 1.1-0.6 2.2-1.3 2.4-0.8 0.2-0.6 1 0.8 2.5 1.4 1.5 1.8 2.8 1.2 4.1-0.4 1.1-0.3 2.2 0.3 2.5 0.5 0.3 0.9 1.3 0.7 2.3-0.1 0.9-0.6 2.3-1 3-0.5 0.8-1.3 0.4-3-1.5-1.2-1.5-2.3-3.4-2.5-4.3-0.2-0.8-0.3-1.9-0.3-2.5 0-0.5 0-1.9 0.1-3 0-1.1-0.2-3.5-0.6-5.2-0.6-2.9-0.4-3.3 1.5-3.3z"/>
		<path id="Path 9" class="s9" d="m304.1 86c0.5 0 1.2 1 1.5 2.3 0.3 1.2 0.4 8.7 0.1 16.7-0.3 10.3-1.1 17-2.6 23-1.2 4.7-2 8.9-1.8 9.5 0.3 0.6-0.4 4.4-1.5 8.5-1.1 4.1-2.3 9.5-2.8 12-0.5 2.5-1.3 5.8-1.9 7.5-0.5 1.7-2.5 6.6-4.4 11-2.2 5.1-3.8 10.7-4.3 15.4-0.5 4.1-1.4 7.6-1.9 7.8-0.6 0.3-2 0-3.3-0.6-1.6-0.8-2.6-0.8-3.8 0.2-1.4 1-1.6 0.9-1.3-0.8 0.3-1.5-0.2-2.1-1.9-2.2-2-0.3-2.2-0.6-1.5-5 0.3-2.7 0.7-5.6 0.7-6.6 0.1-1 0.6-2.1 1.3-2.5 0.6-0.4 1.1-1.4 1.1-2.2-0.1-0.8 0-2.3 0-3.2 0.1-1 0.6-1.6 1.2-1.3 0.5 0.3 1.1-0.6 1.2-2 0.2-1.3 0-2.5-0.5-2.5-0.4 0-0.4-0.8-0.1-1.7 0.3-1 0.8-3.8 1.1-6.3 0.3-2.5 1.2-7 2-10 0.8-3 2.6-8.4 4-12 1.3-3.6 2.2-7.1 1.9-7.7-0.4-0.8 0.5-1.7 1.9-2.3 1.9-0.8 2.6-1.9 2.9-4.7 0.2-2.1-0.1-4.6-0.5-5.5-0.6-1.1-0.5-1.8 0.1-1.8 0.5 0 1.4-1.7 2-3.7 0.5-2.1 1.2-5.6 1.5-7.8 0.4-2.2 1.4-5.3 2.4-7 0.9-1.7 2.7-5.6 4-8.7 1.3-3.2 2.7-5.8 3.2-5.8zm-224.4 52c1 0 2.4 0.9 3 2 1 1.6 1 2.3 0 3.6-0.6 0.9-2.4 2.2-4 3-1.5 0.8-2.7 1-2.7 0.4 0-0.6-0.5-1-1-1-0.6 0-1.7-0.7-2.5-1.5-0.8-0.8-1.3-2.2-1.1-3 0.2-0.9 1.6-1.5 3.5-1.5 1.7 0 3.1-0.4 3.1-1 0-0.6 0.8-1 1.7-1zm-23.6 4c0.6 0 1.2 1 1.3 2.3 0.2 1.2 0.2 3.4 0 5-0.3 2-1 2.7-2.7 2.8q-2.2 0.1-0.7 0.6c0.8 0.4 2.1 1.2 2.7 2 0.7 0.7 1.3 1.5 1.3 1.8 0 0.3-2.1 2.7-4.8 5.5-2.6 2.7-5.3 5.6-6 6.5-0.6 0.8-2.1 1.5-3.2 1.5-1.1 0-2.2 0.6-2.5 1.3-0.4 0.8-2.5 1.1-6.8 1-4-0.2-6.3-0.7-6.6-1.5-0.2-0.7-1.6-2.4-3.1-3.8-1.4-1.4-2.7-3.7-2.8-5.3-0.1-1.5 0.5-3.7 1.3-5 0.9-1.3 1.2-2.9 0.8-4-0.6-1.3 0.2-2.6 3.2-5.2 2.2-1.9 4.3-3.4 4.7-3.5 0.5 0 0.8 0.9 0.8 2q0 2 2 2c1.1 0 3.1-0.9 4.5-2 1.7-1.4 2.9-1.7 3.7-1 0.8 0.6 2.8 0.7 5.3 0.1 3.2-0.7 4.2-0.5 5.3 0.8 1.1 1.4 1.2 1.4 1.1-0.4-0.1-1.1-0.1-2.3 0-2.8 0-0.4 0.6-0.7 1.2-0.7zm-35.4 2.6c0.2 0.2-0.4 1.4-1.2 2.6-0.8 1.3-1.5 3.2-1.5 4.3-0.1 1.1-0.8 2.4-1.6 3-0.9 0.6-1.6 3-1.8 6-0.2 3.2 0.2 5.4 1.1 6.3 0.7 0.6 1 1.5 0.7 1.9-0.4 0.5-0.8 0.2-1-0.4-0.2-0.7-0.9-1.1-1.4-0.8-0.6 0.3-1.1 0.2-1.1-0.2-0.1-0.5-0.4-1.9-0.6-3.3-0.3-1.4-0.5-4.1-0.5-6 0-1.9 0.7-4.8 1.6-6.5 0.9-1.7 1.6-3.6 1.6-4.3 0-0.6 0.3-1 0.7-0.7 0.5 0.2 1.7-0.2 2.7-0.9 1.1-0.8 2.1-1.2 2.3-1zm101.5 126.6c0.6 0.2 1.6 1.3 2.4 2.6 1.3 2 1.2 2.3-0.6 3.2-1.1 0.6-2.7 0.7-3.5 0.3-0.9-0.5-1.8-1.4-2-2-0.3-0.7 0.2-2 1.1-2.8 0.9-0.9 2.1-1.5 2.6-1.3zm-93.3 6c1.9 0.2 2.7 1 3 2.8 0.3 2.4 0.2 2.4-1.5 0.8-1.1-1-2.5-1.8-3.2-1.8-0.6 0-1.2 0.9-1.2 2 0 1.1-0.7 2-1.5 2-0.8 0-1.6-0.2-1.7-0.5-0.1-0.3 0.6-1.7 1.6-3.1 1.4-1.8 2.7-2.4 4.5-2.2z"/>
		<path id="Path 10" class="s10" d="m281.9 119.3c6.2 0.2 8.6 0.6 9 1.6 0.5 1.2-0.5 1.3-5.9 0.6-3.6-0.4-7.6-1.1-9-1.6-1.6-0.5 0.6-0.7 5.9-0.6zm-165.9 144.7c0.6 0 1.7 1 2.5 2.3 0.8 1.2 1.3 2.4 1 2.7-0.2 0.3-1.4 0.5-2.7 0.4-1.5 0-2.3-0.7-2.4-2 0-1 0.1-2.2 0.3-2.6 0.2-0.5 0.8-0.8 1.3-0.8zm-43.1 10c0.5 0 0.7 0.5 0.5 1-0.2 0.6 0.3 1.2 1.1 1.5 0.8 0.3 1.3 1 1 1.5-0.3 0.6 0.2 1 1 1 0.8 0 1.7-0.6 1.9-1.2 0.3-1 0.7-0.9 1.5 0.2 0.5 0.8 0.8 1.8 0.5 2.3-0.2 0.4 0.6 0.9 1.9 1.2 1.2 0.3 3.6 0.4 5.2 0.4 1.7 0 2.4-0.2 1.8-0.5-0.7-0.2-1.3-0.8-1.3-1.4q0-1 2 0c1.1 0.6 1.8 1.5 1.5 2-0.3 0.6 1.4 1.2 3.8 1.4 2.3 0.2 10.1 0.3 17.2 0.2 8.7-0.2 14.7-0.8 18.3-1.9 2.8-1 5.5-2.3 5.8-2.9 0.5-1 0.9-0.9 1.5 0.2 0.7 1.2 0.9 1.1 1-0.5 0-1.1 0.5-0.2 1 2 0.9 3.6 0.7 4.2-1.3 5.8-1.3 1-2.9 1.8-3.5 1.7-0.7 0-1.5 0.6-1.6 1.3-0.2 0.6-0.2 5.5 0 10.7 0.2 6.4-0.1 10.2-0.9 11.8-0.7 1.2-2.1 2.2-3 2.2-1.1 0-2-1-2.3-2.5-0.3-1.4-0.3-3.2 0-4 0.3-0.8 0.1-1.7-0.5-2-0.5-0.3-0.7-2-0.4-3.7 0.3-1.8 0.6-5.2 0.7-7.5 0.1-2.4-0.2-4.2-0.7-4-0.5 0.1-1 1.6-1.2 3.2-0.2 1.6-0.6 3.2-0.9 3.5-0.3 0.3-0.5-0.4-0.5-1.5 0-1.1-0.4-2.6-0.8-3.3-0.4-0.7-1.5-1-2.4-0.7-1 0.3-2 1.3-2.2 2.3-0.3 1.2-0.4 1-0.5-0.5-0.1-1.3-0.7-2.3-1.6-2.3-0.8 0-1.5 0.5-1.5 1 0 0.6-1.1 1.2-2.5 1.5-1.5 0.3-2.5 1.2-2.5 2.3 0 1.4 0.2 1.5 1 0.2q1-1.5 1-0.2c0 0.6-0.9 2.9-3.9 8.7l0.7-12-5.9-0.2c-3.3-0.2-6.9-0.7-8.1-1.2-1.3-0.5-3.4-0.7-4.8-0.4-1.9 0.4-2.4 1-2.2 2.9 0.2 2-0.3 2.5-3.3 2.9-1.9 0.3-3.6 1-3.7 1.6-0.2 0.7-1.3 1.3-2.5 1.5-1.3 0.2-2.3 0.1-2.3-0.3 0-0.5 0.7-1.5 1.6-2.3 1-1.1 1.2-2.3 0.7-4.4-0.5-1.6-1.4-3.2-2.1-3.5-0.7-0.3-1.8-0.1-2.5 0.6-0.9 1-1.5 0.9-2.4-0.5-0.7-0.9-1.3-2-1.3-2.4 0-0.5 0.7-0.5 1.6 0 1.2 0.5 1.5 0.3 1-1-0.3-1-1-1.8-1.6-1.8-0.5 0-0.7-1-0.4-2.2 0.3-1.3 0.7-3.2 0.8-4.3 0.2-1.1 0.4-2.3 0.5-2.7 0-0.5 0.5-0.8 1-0.8zm-6.8 13c1 0.6 2.1 1.5 2.4 2 0.3 0.6 0 2.7-0.6 4.8-0.7 2-1.3 5.3-1.5 7.2-0.1 1.9-0.3 3.7-0.3 4-0.1 0.3-0.8-0.9-1.7-2.5-1-2-1.4-4.3-1-6.7 0.3-2.2 0.2-4-0.4-4.3-0.7-0.3-0.6-1.3 0.1-3 0.9-1.9 1.5-2.2 3-1.5zm64.9 42c0.5 0 1.2 0.5 1.5 1 0.3 0.6 0.5 6.1 0.5 12.3 0 6.1-0.3 11.7-0.8 12.2-0.5 0.6-0.8 2.4-0.8 4.2 0.1 2.4-0.4 3.3-1.9 3.8-1.5 0.4-1.8 0.2-1.2-1 0.4-0.9 0.2-1.7-0.8-2-0.9-0.3-1.3-1.2-0.9-2.2 0.5-1.4 0.2-1.7-1.3-1.2-1 0.4-2.5 0.8-3.3 1-0.9 0.3-1.4-0.2-1.1-1.1 0.2-0.8 0.4-1.9 0.3-2.5 0-0.5-0.2-1.8-0.6-2.7-0.4-1.3-0.1-1.8 1.4-1.8 1.2 0 2.2-0.8 2.5-2 0.3-1.1 1-1.8 1.5-1.5 0.6 0.3 1.1-0.5 1.1-1.7 0.1-1.3 0.3-3.9 0.4-5.8 0.1-1.9 0.7-4.7 1.3-6.2 0.7-1.6 1.6-2.8 2.2-2.8zm-39.8 2c0.4 0 0.8 0.7 0.8 1.5 0 0.9 0.6 1.3 1.5 1 1.1-0.4 1.5 0.3 1.5 3 0 2-0.4 3.3-1 3-0.5-0.3-1 0.7-1.1 2.3-0.1 1.5-0.2 3.6-0.3 4.7 0 1.1 0.2 3 0.6 4.3 0.6 1.7 0.4 2.3-1.2 2.7-1.1 0.3-2.3-0.1-2.8-0.7-0.4-0.7-0.7-2-0.7-2.8 0.1-0.8 0.6-2.5 1.3-3.7 0.8-1.6 0.9-3.2 0.3-5-0.6-1.6-0.8-3-0.6-3.3 0.2-0.3 0.5-2 0.6-3.7 0.2-1.8 0.7-3.3 1.1-3.3z"/>
		<path id="Path 11" class="s11" d="m227 69c0.6 0 1.7 0.2 2.5 0.5 0.8 0.3 1.5 1.4 1.5 2.5 0 1.1 0.5 2.1 1.2 2.3 0.8 0.1 0.7 1.2-0.5 3.5-0.9 1.7-1.3 3.2-0.7 3.2 0.6 0 1 0.9 1 2 0 1.2 0.7 2 1.8 2.1 0.9 0 1.1 0.2 0.4 0.5-0.7 0.2-0.9 1.1-0.5 2.1 0.5 1.3 0.4 1.6-0.5 1-0.7-0.4-1.2-0.1-1.2 0.8 0 0.8-0.4 1.3-1 1-0.6-0.3-1-1.7-1-3.3 0-2.1-0.2-2.4-1-1.2-0.5 0.8-1 5.5-1 10.5 0 5-0.6 10.7-1.3 12.7-0.6 2.1-2 4-3 4.3-1.4 0.4-1.6 0.1-1.1-1.7 0.4-1.3 0.6-5.1 0.5-8.5 0-3.5 0.2-6.3 0.7-6.3 0.4 0 0.1-3.3-0.5-7.3-0.7-3.9-1.8-9.2-2.3-11.7-0.6-2.5-0.9-5.3-0.6-6.3 0.3-1.3 1.1-1.7 2.5-1.3 1.2 0.3 2.3 0.1 2.6-0.4 0.4-0.5 1-1 1.5-1zm-10.3 5.4c0.8 0.6 2 2.9 2.6 5.1 0.6 2.2 1.1 10.4 1.1 18.5 0 8-0.5 15.6-1.1 17-0.7 1.8-2.6 3-6.4 4.4-3.8 1.2-6.5 1.6-8.9 1.1-1.9-0.4-4.8-1.7-6.5-2.8-1.7-1.2-3.3-2.6-3.7-3.2-0.4-0.5-0.8-2.1-0.8-3.5 0-1.4 1.2-4.9 2.5-7.8 1.4-2.8 2.8-7.3 3.1-10 0.3-2.7 1.9-6.9 3.8-9.9 3.2-5.2 3.3-5.3 7.9-5 2.5 0.1 4.9-0.1 5.4-0.5 0.4-0.4-0.5-1.3-2.2-1.9-3-1.2-3-1.2-0.6-1.9 1.3-0.3 3.1-0.2 3.8 0.4zm-116 190.6c1 0 3.3 0.6 5.1 1.3 1.8 0.6 3.2 1.6 3.2 2.2 0 0.6 0.9 1.6 2 2.2 1.1 0.7 2 2 2 2.8 0 0.8 0.5 1.3 1 1 0.5-0.3 1-0.1 1 0.5 0 0.6 0.7 1 1.5 1 0.8 0 1.5 0.4 1.5 1 0 0.6 1 1 2.3 1 1.2 0 3-0.5 4-1.2 1.6-1.2 1.6-1.5 0.3-3.3-0.8-1.2-2.6-2-4.2-2-1.5 0-2.9-0.6-3.1-1.3-0.1-0.6 0.3-1.1 1-1 0.6 0.2 1.1-0.3 1-1-0.2-0.9 0.9-1 4.5-0.6 2.6 0.4 6.3 1.5 8.2 2.6 1.9 1.1 4.3 2.7 5.3 3.7 1 0.9 1.7 2.7 1.7 4.1 0 1.9-0.2 2.1-0.9 1-0.6-1.1-1-1.2-1.5-0.3-0.3 0.7-3 2-5.8 3-3.6 1.1-9.6 1.7-18.3 1.9-7.2 0.1-14.9 0-17.2-0.2-2.4-0.2-4.1-0.8-3.8-1.4 0.3-0.6-0.4-1.4-1.5-2q-2-1-2 0c0 0.6 0.6 1.2 1.3 1.4 0.6 0.3-0.1 0.5-1.8 0.5-1.7 0-4-0.1-5.2-0.4-1.3-0.3-2.1-0.8-1.9-1.3 0.3-0.4 0-1.4-0.5-2.2-0.8-1.1-1.2-1.2-1.5-0.3-0.2 0.7-1.1 1.3-1.9 1.3-0.8 0-1.3-0.4-1-1 0.3-0.6-0.1-1.2-0.7-1.5-0.7-0.3-1.3-1.3-1.3-2.1 0-0.9 1-2.2 2.3-2.8 2-0.9 2.6-0.7 5 1.8 2.3 2.5 3.2 2.8 6.5 2.2 2.5-0.4 3.8-0.2 4 0.6 0.3 1 0.8 0.9 2.1-0.2 1-0.9 1.5-2.2 1.2-3.3-0.3-0.9-0.1-1.9 0.4-2.2 0.5-0.3 1.2 0.2 1.5 1 0.3 0.8 1 1.3 1.5 1 0.6-0.3 0.3-1.2-0.7-2.3-1.6-1.6-1.6-1.7 0-2 0.9-0.1 1.7-0.9 1.7-1.7 0-0.8 0.8-1.5 1.8-1.5zm26 25c0.4 0 0.6 1.9 0.5 4.2 0 2.4-0.2 4.6-0.2 5-0.1 0.5-0.8 0.8-1.6 0.8-1.1 0-1.3-0.6-0.9-2.3 0.4-1.2 0.8-3.3 1-4.7 0.1-1.4 0.3-2.6 0.3-2.8 0.1-0.1 0.4-0.2 0.9-0.2zm-27.9 2l9.6 0.3v4.7c0 2.7-0.3 5.2-0.7 5.7-0.4 0.4-1.5 0.1-2.3-0.7-1.1-1.1-1.6-1.1-1.5-0.3 0 0.7 0.8 2.1 1.7 3 1.6 1.7 1.6 1.8 0 2-0.9 0.2-1.7 1.1-1.6 2 0 1 0.2 1.2 0.5 0.5 0.2-0.6 1.1-1.2 1.9-1.2 0.9 0 1.5 0.9 1.5 2.5 0 1.4-0.9 3.3-2 4.2-1 1-1.7 2.1-1.5 2.5 0.3 0.5 1.5 0.8 2.8 0.8 2.2 0.1 2.2 0.1 0.2 1.5-1.1 0.9-1.5 1.5-1 1.5 0.5 0 1.1 2 1.3 4.5 0.2 3.9-0.1 4.6-2 5.1-2.2 0.6-2.2 0.7-0.3 1 1.5 0.3 2.2 1.6 2.8 5.2 0.4 2.7 0.3 5.8-0.2 7.2-0.5 1.4-1 1.9-1 1.2-0.1-0.6-0.9-1.2-1.8-1.2-1.3 0-1.8-0.8-1.8-3 0-1.6-0.5-3-1-3-0.5 0.1-0.2-0.7 0.7-1.7 1.3-1.3 1.5-2.1 0.7-2.8q-1.1-1-0.1-3c0.5-1.1 0.8-2.8 0.6-3.8-0.2-0.9-1-1.5-1.6-1.2-0.7 0.3-1.5-0.3-1.8-1.4-0.4-1.4 0.1-2.1 1.8-2.5 1.2-0.3 2.2-1.1 2.2-1.6 0-0.6-0.5-0.9-1.2-0.8-0.7 0.2-1.7-1.5-2.3-3.6-0.8-3-0.7-4 0.3-4.3 0.9-0.2 0.9-0.7-0.2-2.1-0.8-0.9-1.7-5.2-2-9.4zm-13.7 4c0.4 0 0.7 0.6 0.7 1.4 0 0.9-0.4 1.5-1 1.5-0.5 0-0.7 1.5-0.5 3.5 0.4 2.5 0 4-1.2 5.2-1.7 1.6-1.8 1.4-2.6-2.3-0.4-2.1-0.5-4.8-0.2-6 0.3-1.2 1.4-2.4 2.3-2.7 1-0.2 2.1-0.5 2.5-0.6zm2.9 14.3c1.8-0.1 2.4 0.4 2.7 2.5 0.2 1.4 0.3 3 0.3 3.4-0.1 0.4 1.2 1.1 2.9 1.5 1.6 0.4 3 1.2 3 1.7 0.1 0.6 0.5 0.1 0.9-1 0.9-1.9 0.9-1.9 1 0.3 0 1.4-0.8 2.5-2.2 3.1-1.3 0.5-2.6 0.7-3 0.5-0.4-0.2-0.2-1.1 0.5-1.9 1.1-1.3 0.8-1.6-1.5-1.5-1.5 0-2.9-0.5-3.1-1.2-0.2-0.7-0.7-0.9-1-0.5-0.4 0.4 0.2 2.2 1.2 4 1.1 1.8 1.8 4.4 1.6 5.7-0.2 1.4-0.6 3.7-0.9 5-0.3 1.4-0.6 3.7-0.7 5-0.1 1.4 0.2 3.7 0.5 5 0.4 1.4 0.3 3.1-0.1 3.7-0.5 0.7-1.8 0.9-3.5 0.5-1.5-0.4-3-1.5-3.2-2.4-0.3-1-0.1-2.1 0.6-2.5 0.8-0.5 0.9-3.1 0.5-8.3-0.4-4.1-1-9-1.4-11-0.5-2.6-0.3-3.3 0.5-2.7 0.7 0.4 1.5 0.3 1.7-0.3 0.3-0.5 0.1-1-0.5-1-0.5 0-0.8-0.5-0.5-1.2 0.2-0.7 0.6-2.4 0.9-3.8 0.4-1.7 1.3-2.5 2.8-2.6z"/>
		<path id="Path 12" class="s12" d="m218.5 71c1.4 0 2.3 0.5 2 1-0.3 0.5 0 3.1 0.5 5.8 0.6 2.6 1.6 8 2.3 11.9 0.6 4 0.9 7.3 0.5 7.3-0.5 0-0.7 2.8-0.7 6.3 0.1 3.4-0.1 7.2-0.5 8.4-0.5 1.9-0.3 2.2 1.2 1.8 0.9-0.3 2.3-2.2 2.9-4.3 0.7-2 1.3-7.7 1.3-12.7 0-5 0.5-9.7 1-10.5 0.7-1.1 1-0.1 1 3.5 0 2.7-0.3 8.7-0.8 13.2-0.4 4.9-1.1 7.9-1.7 7.5-0.6-0.4-0.7 0-0.2 1 0.4 1 0.7 2.1 0.7 2.5 0 0.5 6 0.7 13.3 0.5 9.4-0.2 12.8 0 11.7 0.7-0.8 0.6-4.8 1.1-8.8 1.1-3.9 0-9.2 0.5-11.7 1-3.9 0.9-4.5 1.4-4.5 3.5 0 1.8 0.4 2.4 1.5 2 0.8-0.3 1.3-1 1-1.5-0.3-0.5-0.3-1 0-1 0.3 0 1.3 0.4 2.3 0.9 0.9 0.5 8.7 1 17.2 1.1 8.5 0.2 21.4 0.2 28.5 0.1 7.1-0.1 13.1 0.1 13.3 0.4 0.1 0.3 0 1-0.3 1.5-0.3 0.6-9.8 0.8-27 0.5-14.6-0.3-27.2-0.7-28-1-0.8-0.3-1.5 0-1.5 0.5 0 0.6-1 0.7-2.2 0.3-1.7-0.5-2.1-0.3-1.5 0.5 0.4 0.8-0.4 1.6-2.4 2.4-2.7 1.1-3 1.7-2.5 4 0.4 1.8 0.2 3-0.6 3.2-0.7 0.3-1.9-0.1-2.6-0.7-0.7-0.7-1.2-2-1.2-3 0-0.9-0.3-1.6-0.7-1.6-0.5 0.1-2.5 0.1-4.5 0-3.2-0.1-3.9-0.5-4.7-2.9-0.5-1.5-1.2-3.5-1.5-4.5-0.5-1.3 0.3-2 3.5-3 2.9-0.8 4.5-2 5.1-3.7 0.5-1.4 1.2-7 1.5-12.5 0.3-5.7 0.1-13.2-0.6-17.5-0.7-4.1-1.8-8.5-2.6-9.8-0.8-1.2-1.5-2.7-1.5-3.2 0-0.5 1.1-1 2.5-1zm-76.2 2.2c2-0.1 4.2 0.4 4.7 1.1 0.7 0.8 0.6 1.6-0.2 2.4-0.7 0.6-2.6 1.3-4.3 1.5-2.6 0.2-3.1-0.1-3.5-2.3-0.4-2.4-0.2-2.6 3.3-2.7zm9.2 6.8l-2 1.8c-1.1 1-3.7 2.2-5.7 2.5-2.4 0.5-3.6 0.3-3.3-0.3 0.3-0.5 2-1.7 3.8-2.5 1.7-0.8 4.1-1.4 7.2-1.5zm123.3 35.4c14.2 0.1 18.1 0.4 17.7 1.4-0.3 0.6-0.5 1.4-0.5 1.7 0 0.3-5.4 0.5-12 0.5-7 0-12.2-0.4-12.5-1-0.3-0.5-3.8-1-7.7-1.1-4.5 0-6.5-0.3-5.3-0.8 1.1-0.4 10.2-0.7 20.3-0.7z"/>
		<path id="Path 13" class="s13" d="m142.6 107.7c1.9 1.5 3.7 3.5 4 4.3 0.2 0.8 0.2 1.7-0.1 2-0.4 0.3-2.2-1.3-4-3.5-1.9-2.2-3.4-4.4-3.4-4.8 0.1-0.4 1.6 0.5 3.5 2zm-19.8 41.3c0.4-0.1 1.8 0.7 3.1 1.7 1.6 1.2 2.2 2.4 1.8 3.5-0.4 1-1.6 1.8-2.7 1.8-1.1 0-2.2-0.7-2.5-1.5-0.3-0.8-0.5-2.4-0.5-3.5 0-1.1 0.3-2 0.8-2zm-17 1.1c0.6 0 1.4 0.8 1.7 1.9 0.3 1.1-0.1 2.7-0.9 3.5-0.8 0.8-1.8 1.5-2.3 1.5-0.4 0-1.4-1.1-2-2.5-0.7-1.4-1.4-2.7-1.5-2.9-0.2-0.3 0.6-0.7 1.7-0.9 1.1-0.3 2.6-0.5 3.3-0.6zm-7.5 13.1c1.2 0.2 2.3 1.2 2.5 2.3 0.2 1.2-0.4 2.5-1.5 3.2-1 0.6-2.6 1-3.5 0.7-1-0.2-1.8-0.6-1.7-0.8 0.1-0.3 0.5-1.7 1.1-3.1 0.7-1.9 1.5-2.6 3.1-2.3zm7.4 27.8c1-0.1 2.5 0.6 3.3 1.5 1.1 1.3 1.2 2.1 0.4 3.3-0.6 1-2.2 1.7-3.5 1.7q-2.4 0-2.7-2c-0.2-1.1-0.1-2.6 0.2-3.3 0.3-0.6 1.3-1.2 2.3-1.2zm15.1 10c0.9-0.1 2.4 0.6 3.2 1.5 1.2 1.3 1.3 2 0.3 4-0.9 1.7-2.2 2.5-3.8 2.5q-2.5 0-3-2c-0.3-1.1 0-2.9 0.5-4 0.6-1.1 1.8-2 2.8-2zm-15.7 5.7c0.5 0.2 1.7 1.8 4.3 6.8l-3.5-0.8c-1.9-0.4-3.7-1.3-4.1-2-0.4-0.7-0.9-1.7-1-2.4-0.2-0.6 0.6-1.3 1.6-1.5 1-0.2 2.3-0.3 2.7-0.1zm-74.7 88.6c1.6 0.1 3.1 0.8 3.3 1.5 0.2 0.6-0.4 1.2-1.2 1.2-0.8 0-1.7 0.6-1.9 1.3-0.2 0.6-0.1 1.7 0.2 2.3 0.4 0.6 1.3 1.3 2.1 1.5 0.7 0.2 1.5 1.5 1.7 2.9 0.2 1.4-0.1 3.1-0.6 3.8-0.6 0.6-0.9 1.8-0.9 2.5 0.1 0.6 0.1 2.2 0 3.5 0 1.2-0.7 2.2-1.6 2.2-0.8 0-2.4-1.2-3.4-2.7-1.3-1.9-2.2-5.6-2.7-11-0.7-6.7-0.5-8.3 0.6-8.7 0.8-0.3 2.8-0.4 4.4-0.3z"/>
		<path id="Path 14" class="s14" d="m56.8 226.1c0.1 0 0.2 0.6 0.2 1.4 0 0.8-0.9 1.5-2 1.5-1.2 0-2.2 0.8-2.5 2-0.3 1.1-0.9 2-1.5 2-0.6 0-0.5-1.1 0.2-2.9 0.7-1.7 2.1-3.2 3.3-3.4 1.1-0.2 2.1-0.5 2.3-0.6zm5.9 24.5c0.2 0.2-0.4 1.8-1.2 3.4-0.8 1.7-1.7 3-2 3-0.3 0-0.2-1.2 0.1-2.7 0.4-1.5 1.1-3.1 1.7-3.5 0.6-0.4 1.2-0.5 1.4-0.2zm-24.8 5.1c1.4 0.3 3.5 1.1 4.6 1.6 1.8 1 1.8 1.1 0.3 1.4-1.4 0.2-1.6 0.8-0.3 4.5l-4.5-1.7c-2.5-1-4.9-2.2-5.5-2.7-0.7-0.6-0.3-1.4 0.9-2.3 1.1-0.9 2.9-1.2 4.5-0.8zm32 0.8l2.1 2c1.1 1.1 2 3.1 2 4.5 0 1.4-0.7 3.6-1.5 5-0.8 1.4-1.7 3.3-2 4.3-0.3 0.9-0.9 1.7-1.5 1.7-0.5 0-1 0.7-1 1.5 0 0.8-0.6 1.5-1.2 1.5-0.7 0-2.1-1.5-3-3.5-1.5-2.9-1.6-3.9-0.5-6 0.6-1.4 1.8-2.5 2.5-2.5 0.6 0 1.2-0.7 1.2-1.5 0-0.8 0.7-1.5 1.5-1.5 1 0 1.5-1 1.5-2.7zm39.6 9.1c0.9 0.8 2.2 1.1 3.4 0.6 1.4-0.6 1.9-0.4 1.7 0.8-0.1 0.8 0.3 1.6 0.8 1.8 0.6 0.2 1.6 1.3 2.3 2.3 0.7 1 1 2.3 0.7 2.9-0.2 0.5 0.2 1.6 1 2.5 1.4 1.3 1.4 1.5 0 1.5-0.8 0-1.5-0.5-1.5-1 0-0.6-0.6-1-1.5-1-0.8 0-1.5-0.5-1.5-1 0-0.6-0.4-0.8-1-0.5-0.5 0.2-1-0.2-1-1 0-0.9-0.9-2.1-2-2.8-1.1-0.7-2-1.8-2-2.5 0-0.7-0.7-1.2-1.6-1.2-1.3 0-1.4-0.3-0.4-1.4 1-1.1 1.4-1.1 2.6 0zm-26.6 1.4c0.6 0 1 0.6 1 1.5 0 1 0.5 1.2 1.8 0.6 0.9-0.5 3.1-1.1 4.7-1.5 2.8-0.6 3.1-0.4 3.9 3.1 0.6 2.9 0.5 4.1-0.8 5.3-0.8 0.8-1.7 1.2-2 1-0.3-0.3-0.7-1.7-0.9-3-0.3-1.4-0.6-2.9-0.6-3.3 0-0.4-0.6-0.8-1.3-0.8-0.7 0-1.6 1.4-2 3-0.4 1.7-1.4 3.1-2.3 3.1-0.8 0-2.6-1.3-4-2.8-2.4-2.6-2.4-2.8-0.5-3 1.1-0.1 2-0.9 2-1.7 0-0.9 0.5-1.5 1-1.5zm-19.2 15c0.1 0 0.2 1.3 0.2 3 0 1.6-0.6 3.6-1.5 4.5-1.3 1.3-1.6 1.3-3 0-1.3-1.4-1.2-1.9 1.3-4.5 1.5-1.6 2.8-3 3-3zm-10.6 4.8c3.6 1.5 4.3 2.3 4.3 4.5 0 2.4-0.3 2.7-2.5 2.1-1.3-0.3-3.2-1.6-4.2-2.8-0.9-1.2-1.8-2.9-1.8-3.9-0.1-1.6 0.2-1.5 4.2 0.1zm296 26.7c0.6 0.3 1 1.2 0.9 2 0 0.8 0.4 1.2 0.9 1 0.6-0.3 1.3 0.5 1.5 1.7 0.3 1.2 0.5 3.9 0.5 6 0 2.1-0.3 3.7-0.7 3.7-0.4 0-2-2-3.5-4.5-1.6-2.5-2.4-5-2-5.7 0.4-0.7 0.8-1.6 1-2 0.1-0.4 0.3-1.2 0.3-1.8 0.1-0.6 0.6-0.8 1.1-0.4zm-269.2 27.5c0.6 0 1 0.4 1 1 0 0.5 0.7 1 1.5 1 0.9 0 1.5 0.8 1.5 2 0 1.2-0.8 2.2-2.2 2.6-1.3 0.3-2.6 1.1-3 1.7-0.4 0.8-1.5 0.3-3.2-1.3-1.5-1.4-2.6-2.9-2.6-3.3 0-0.4 1.4-0.7 3-0.7q3 0 3-1.5c0-0.9 0.5-1.5 1-1.5zm43.4-0.5l0.6 2.5c0.4 1.3 0.5 3.2 0.4 4.2-0.2 1-1 1.8-1.9 1.8-0.8 0-1.5-1-1.6-2.1 0-1.2 0.5-3.1 1.2-4.3zm-37.2 7.9c1.4 0.1 2.4 0.8 2.4 1.6 0 0.9 0.3 2.1 0.7 2.8 0.4 0.7 1.5 1 2.5 0.7 1.3-0.4 1.8 0.1 2 2 0.1 1.4-0.2 2.8-0.7 3-0.6 0.3-2.2 0.2-3.6-0.2-1.4-0.4-2.9-1.9-3.4-3.3-0.5-1.3-0.7-2.8-0.3-3.2 0.3-0.4 0.1-0.8-0.6-0.8-0.6 0-1.2-0.6-1.3-1.3-0.1-0.9 0.8-1.3 2.3-1.3zm39.4 7.7c0.6 0 0.8 0.5 0.6 1.2-0.2 0.7 0.4 1.8 1.5 2.5 1.5 1 1.6 1.3 0.4 1.8-0.9 0.3-2.6 0.1-3.8-0.5-1.2-0.6-2.3-1.7-2.4-2.5-0.2-0.8 0.4-1.6 1.2-1.9 0.8-0.3 1.9-0.5 2.5-0.6z"/>
		<path id="Path 15" class="s15" d="m54.3 170c0.4 0 1 1.2 1.3 2.8 0.3 1.5 0.3 2.8 0 3-0.3 0.1-1.4-0.2-2.3-0.8-1.2-0.6-2.2-0.5-3 0.3-0.7 0.7-1.6 0.8-2 0.4-0.5-0.4 0.6-1.9 2.2-3.2 1.7-1.3 3.3-2.4 3.8-2.5zm9.6 106.4c2 0.3 3.7 0.7 3.8 0.9 0.1 0.1 0 1.2-0.2 2.4-0.3 1.5-1.2 2.3-2.5 2.3-1.1 0-2.7 1.1-3.5 2.5-0.9 1.5-2 2.2-2.6 1.7-0.8-0.5-0.9-1.9-0.3-4.6 0.5-2.2 1-4.3 1.3-4.9 0.3-0.5 2.1-0.6 4-0.3zm300.3 16.3c2.4 0.3 4.5 0.8 4.8 1 0.3 0.2-0.3 1.6-1.2 3.1-0.9 1.5-2.3 2.7-3 2.7-0.7 0-1.6 1.1-2 2.5-0.4 1.4-0.4 4.6 0 7.3 0.4 2.6 0.4 4.7-0.1 4.7-0.4 0-1.6-0.4-2.7-1-1.8-0.9-1.9-1.7-1.5-7.8 0.3-3.7 0.8-8.1 1-9.9 0.4-3 0.4-3.1 4.7-2.6zm-331.1 5.3c1 0 2.4 0.9 2.9 2 0.6 1.1 1 2.4 1 3 0 0.6-1.2 0.7-2.7 0.4-1.6-0.3-3.1-1.1-3.5-1.7-0.3-0.7-0.4-1.8-0.1-2.5 0.2-0.6 1.3-1.2 2.4-1.2zm23.1 8.8c1.8 0.9 3.6 2.1 4 2.7 0.4 0.6 0.2 1.3-0.5 1.7-0.7 0.4-1.4 0.8-1.7 0.8-0.3 0-1.5-0.7-2.7-1.7-1.2-1-2.3-2.6-2.3-3.5-0.1-1.6 0-1.6 3.2 0zm284.5 3.1c0.2 0.6 1 1.1 1.8 1.1 0.8 0 1.7 0.9 2 2 0.3 1.1 1 1.8 1.5 1.5 0.6-0.3 1-0.1 1 0.5 0 0.6 0 1.3 0 1.7 0 0.5-0.8 0.8-1.8 0.9-0.9 0-2.3-0.3-2.9-0.8-0.7-0.4-1.7-0.6-2.3-0.3-0.6 0.3-1.1-1-1.2-2.8-0.1-1.9 0.3-3.7 0.8-4.1 0.4-0.4 1-0.2 1.1 0.3zm28.1 7.2c0.1-0.1 2.6 1.1 5.5 2.5 2.8 1.5 6.6 2.7 8.4 2.8 1.7 0 2.9 0.4 2.7 0.8-0.2 0.5 0.6 0.9 1.9 1.1 2.1 0.3 2.1 0.4-0.5 1.5-1.6 0.7-2.6 1.6-2.3 2.2 0.3 0.6-0.3 1-1.2 1-1 0.1-2.5-0.6-3.3-1.5-1-1-2.2-1.3-3.5-0.9-1.6 0.6-1.9 0.4-1.2-0.9 0.6-1.4 0.1-1.7-3-1.6-2.1 0-3.9-0.4-4-1-0.2-0.6-1-1.1-1.8-1.1-0.8 0-1.5-0.3-1.5-0.8 0-0.4 0.8-1.5 1.8-2.4 0.9-0.9 1.8-1.7 2-1.7zm-251.7 23.4l1.9 3.7c1.1 2.1 1.8 4.2 1.5 4.8-0.3 0.6-0.1 1.8 0.4 2.7 0.4 1 0.7 2.4 0.5 3-0.2 0.7-1.3 1.3-2.4 1.3-1.8 0-2-0.7-2-7.8z"/>
		<path id="Path 16" class="s16" d="m69 277c0.6 0 1.2 0.6 1.4 1.3 0.3 0.6 0.3 2.2 0 3.5-0.2 1.2 0.1 2.2 0.6 2.2 0.5 0 1.3 0.8 1.6 1.7 0.5 1.5 0.2 1.6-1.2 1-1.8-0.8-1.9-0.4-1.1 6.7 0.4 4.7 0.3 8.4-0.3 9.6-0.9 1.8-1.2 1.8-2.5 0.5-0.9-0.9-1.3-2.5-1-4.3 0.3-1.5 1.1-4.3 1.7-6.2 1-3.2 0.8-3.7-1.6-5.5-1.4-1.1-2.6-2.8-2.6-3.8 0-0.9 0.7-1.7 1.5-1.7 0.8 0 1.7-1.1 2-2.5 0.3-1.4 1-2.5 1.5-2.5zm64.3 81.5c1.2 0.4 2.4 0.9 2.7 1.2 0.3 0.2-0.2 0.8-1 1.3-0.8 0.5-1.9 0.8-2.5 0.7-0.6-0.2-1.1-1.2-1.2-2.1-0.2-1.4 0.2-1.6 2-1.1z"/>
		<path id="Path 17" class="s0" d="m192.1 268c0.8-0.1 3.3 2.3 5.6 5.2 3.3 4.2 3.9 5.6 3 6.6-0.7 0.7-2 1-2.9 0.7-1-0.3-2.8 0-4 0.6-1.3 0.7-2.5 1.5-2.8 1.9-0.3 0.4-4.1 1.5-8.5 2.4-4.4 0.9-8.1 2.1-8.2 2.6-0.2 0.6-0.9 0.7-1.5 0.4-0.7-0.3-3.3 0.3-5.8 1.4-2.5 1-5.3 2.2-6.2 2.6-1.2 0.4-2 0-2.3-0.9-0.3-0.8-0.5-2-0.5-2.5 0.1-0.6 1.5-1.9 3.3-3 1.8-1.1 4-2 5-2 0.9 0 5.5-1.8 10.2-4 4.7-2.2 9.3-4 10.3-4 0.9 0 2.7-0.4 4-0.8 1.7-0.5 2.1-1.2 1.6-2.7-0.4-1.1-0.9-2.6-1.2-3.2-0.3-0.7 0.1-1.3 0.9-1.3zm11.2 16.1c0.9-0.1 1.7 0.2 1.8 0.6 0 0.5 0.1 1.8 0.2 3.1 0.1 1.3-0.1 2.9-0.5 3.5-0.5 0.9-1.3 0.6-2.8-0.8-1.9-1.8-2.1-1.8-2-0.3 0 1.3-0.6 1.7-2.2 1.4-1.3-0.3-2.9 0-3.6 0.7-1.1 0.9-1.5 0.9-2-0.1-0.5-1.1-1.2-1.1-2.7-0.3-1.1 0.6-3.9 1.5-6.2 2.1-2.4 0.5-4.3 1.4-4.3 2 0 0.6 0 1.3-0.1 1.7 0 0.5-0.5 1.4-1 2-0.5 0.7-1.7 1-2.6 0.7-1-0.3-2.6 0.1-3.5 1-1 0.9-1.8 2.3-1.8 3.1 0 0.8-0.4 1.5-1 1.5-0.6 0-2.2-0.9-3.7-2.1-1.6-1.1-3-2.7-3.3-3.5-0.4-1.2-0.9-1.1-2.7 0.6-1.3 1.1-3 2-3.8 2-0.8 0-1.5-0.7-1.5-1.5 0-0.8-0.4-1.5-1-1.5-0.6 0-1-0.4-1-1 0-0.6 0.8-1 1.9-1 1 0 2.7-0.6 3.7-1.4 1.4-1.1 2.3-1.2 3.4-0.4 1.1 0.8 3 0.5 7.3-1.1 3.1-1.1 9-2.8 13-3.8 3.9-0.9 10.1-2.8 13.7-4.4 3.6-1.5 7.3-2.8 8.3-2.8zm-45.7 23.5c0.8 1.3 1.2 2.8 0.9 3.4-0.3 0.6-1.4 1.4-2.5 2-1.7 0.8-2.2 0.6-3-1.5-0.8-2-0.6-2.8 1.1-4.4 2-1.8 2.1-1.8 3.5 0.5zm72.6 2.8c0.9 0 1.7 0.2 1.7 0.3 0.1 0.2-0.3 1.1-0.8 2.1-0.5 0.9-1.2 2.5-1.5 3.5-0.4 1.2-1.7 1.7-4.6 1.7-3.1 0-3.9-0.3-3.5-1.5 0.3-0.8 0.5-2.1 0.5-2.8 0-0.6 1.4-1.7 3.2-2.3 1.8-0.6 4.1-1 5-1zm-12.2 3c1 0.1 1.5 1.2 1.5 3.1 0 2.9-0.2 3-4.5 3.2-2.5 0.1-4.7 0.2-5 0.3-0.3 0.1-2.1 0.3-4 0.6-1.9 0.2-4.1 0.2-4.7-0.1-1-0.4-1-0.8-0.1-2 0.7-0.8 2.3-1.5 3.5-1.5 1.3 0 2.5-0.7 2.8-1.5 0.4-1.2 0.8-1.3 2.1-0.3 1.1 1 1.8 1 2.3 0.2 0.4-0.6 1.6-1.4 2.7-1.7 1-0.3 2.6-0.4 3.4-0.3zm-58.5 1.6c0.3 0 1.7 0.5 3.3 1.1 1.5 0.7 3.9 1.1 5.5 1 2.3-0.1 2.7 0.3 2.7 2.4q0 2.5-2 3-2 0.5-2.5-1.3c-0.4-1.3-0.8-1.4-1.7-0.5-0.7 0.7-2.2 1.3-3.5 1.3-2 0-2.3-0.5-2.3-3.5 0-1.9 0.2-3.5 0.5-3.5zm17.1 2c0.8 0 2.5 0.4 3.9 1 2.1 0.8 2.3 1.3 1.5 3-0.7 1.4-1.8 1.9-4 1.7-1.6-0.1-3.2-0.8-3.5-1.5-0.3-0.6-0.2-1.9 0.1-2.7 0.3-0.8 1.2-1.5 2-1.5zm14.7 0.5c3.4 0.2 6.5 0.4 7 0.4 0.4 0.1 0.7 0.8 0.7 1.6q0 1.5-3 1.5c-1.6 0-3-0.4-3-1 0-0.6-0.4-1-1-1-0.5 0-1 0.7-1 1.5 0 0.8-0.8 1.7-1.7 2-1 0.3-2.6 0.3-3.5 0-1-0.3-1.9-1.3-2-2.3-0.1-1 0.2-2.1 0.6-2.5 0.4-0.3 3.6-0.4 6.9-0.2zm36.1 2c0.4 0.1 0.7 1.3 0.6 2.6-0.1 1.3-0.7 2.9-1.3 3.5-0.7 0.7-2.2 1.5-3.4 1.8-2 0.5-2.3 0.2-2.3-2.4 0-2.3 0.7-3.3 2.8-4.4 1.5-0.8 3.1-1.3 3.6-1.1zm-9.2 2.5c0.4 0 0.8 1.1 0.8 2.5 0 1.4-0.6 3.4-1.2 4.5-1 1.6-1 2.2 0 3 0.8 0.7 1.8 0.4 3.2-1 1.1-1.1 2.4-1.8 3-1.5 0.6 0.3 1 1.2 1 2 0 0.8-0.7 1.8-1.6 2.2-0.8 0.5-1.3 1.4-1 2 0.3 0.7 0.2 2.2-0.4 3.3-0.6 1.1-1.8 1.9-2.7 1.7-1-0.2-3.5-1.2-5.6-2.3-2.7-1.3-3.8-2.5-3.6-3.9 0-1.1 0.1-2.7 0-3.5q-0.1-1.5-1-0.5c-0.5 0.6-1.1 2.3-1.3 4-0.2 2.1-1 3.1-2.8 3.6-1.4 0.3-3.1 0.2-3.7-0.3-0.9-0.6-1-1.4-0.3-2.8 0.6-1.2 2.1-2.1 3.8-2.1 2-0.1 1.7-0.3-1.3-0.8-3.2-0.5-4.1-1.1-4.2-2.9-0.3-1.8-0.5-2-1.7-1-0.8 0.7-1.2 1.6-1 2 0.2 0.5-0.5 0.8-1.6 0.8-1.4 0-2-0.7-2-2.3 0-1.2 0.4-2.6 0.8-3.2 0.4-0.6 1.6-1.1 2.7-1.2 1.1 0 4.4-0.4 12.7-1.6v6.8l0.8-2.9c0.5-2.2 1.4-3 3.6-3.3 1.6-0.3 3.1-0.6 3.3-0.9 0.2-0.2 0.8-0.4 1.3-0.4zm-57.5 2.5c0.7 0.3 1.7 0.5 2.3 0.5 0.6 0 1 1 1 2.2 0 1.5-0.6 2.4-1.7 2.5-1 0.1-2.4-0.9-3-2.3-0.7-1.3-1-2.6-0.6-2.9 0.4-0.3 1.3-0.3 2 0zm26.5 0.5c1.8 0 2.8 0.5 2.8 1.5 0 0.8-0.2 2.2-0.5 3-0.3 0.9-1.7 1.5-3.5 1.5-2.4 0-3-0.4-3.2-2.3-0.1-1.3 0.2-2.7 0.7-3 0.5-0.4 2.1-0.7 3.7-0.7zm-18.2 1c1.6 0 2 0.7 2.1 3.7 0.1 2.1 0.3 5 0.5 6.5 0.4 2.5 0.1 2.7-2.1 2.3-2.1-0.4-2.4-0.2-1.9 1.2 0.6 1.6 0.5 1.7-1 0.3-1.5-1.3-1.6-2.1-0.7-5.5 0.5-2.2 0.8-4.3 0.6-4.8-0.3-0.4-0.3-1.4 0-2.2 0.2-0.8 1.4-1.5 2.5-1.5zm9.3 7.2c2.8 0.3 3.2 0.7 3.3 3.3 0.1 1.6 0.5 3.7 0.9 4.5 0.4 0.8 0.4 2.3 0.1 3.2-0.4 1.2-1.6 1.8-3.6 1.8-1.6 0-3.2-0.6-3.4-1.3-0.3-0.6-0.2-1.6 0.2-2 0.4-0.5 0.7-1.4 0.7-2 0-0.7-0.5-1.8-1.2-2.5-0.7-0.6-1.1-2-0.9-3 0.3-0.9 0.5-1.8 0.6-2 0.1-0.2 1.6-0.2 3.3 0zm33.7 5.8c1.1 0 2 0.7 2 1.5 0 0.8-0.9 1.9-2 2.5q-2 1-2.5 0c-0.3-0.6-0.3-1.7 0-2.5 0.2-0.8 1.4-1.5 2.5-1.5zm-25.5 2c0.8 0 2.2 0.2 3 0.5 0.8 0.3 1.5 1.4 1.5 2.5 0 1.6-0.7 2-3 2-1.6 0-3.2-0.4-3.5-1-0.3-0.6-0.3-1.7 0-2.5 0.2-0.8 1.1-1.5 2-1.5z"/>
		<path id="Path 18" class="s1" d="m63.9 47c0.5 0 0.8 2.2 0.7 4.9 0 2.7-0.4 4.4-0.8 3.8-0.4-0.7-0.8-2.9-0.8-5 0-2 0.4-3.7 0.9-3.7zm-0.2 11q1.2 0 0.9 5.3c-0.1 2.8 0.2 6 0.8 6.9 0.8 1.3 0.8 2.1-0.1 3-0.7 0.7-1.5 1.1-1.7 0.8-0.2-0.3-0.5-4-0.7-8.3-0.3-5.5-0.1-7.7 0.8-7.7zm48 14c0.7 0 1.3 0.5 1.3 1 0 0.5 1.4 1.1 3.1 1.3 2.2 0.1 3.4 0.9 4 2.5 0.9 2.1 0.7 2.2-5.1 2.2-5.9 0-6-0.1-6.2-2.8-0.1-1.6 0.2-3.2 0.7-3.5 0.5-0.4 1.4-0.7 2.2-0.7zm11.3 62.1c0.3 0 0.4 0.6 0.3 1.4-0.2 0.8-1 1.5-1.8 1.5q-1.5 0-1 2 0.5 2-1.5 3c-1.8 0.9-1.9 0.7-1.3-1.3 0.3-1.2 0.6-3 0.5-4-0.1-1.1 0.6-1.8 2.1-2.1 1.2-0.2 2.4-0.4 2.7-0.5zm86.5 145.7l10 0.4c7.7 0.3 11 0.9 14.3 2.6 2.3 1.2 4.2 2.5 4.2 3 0 0.4-1.4 2.1-3 3.7-2.2 2.1-2.7 3.2-1.8 3.6q1.3 0.7-1 1.3c-1.2 0.3-2.2 1.2-2.2 1.9 0 0.6-0.9 3-1.9 5.2-1.9 3.7-1.9 4.1-0.3 5.2 1.6 1 1.6 1.1-0.1 1.7-0.9 0.3-2.1 0.4-2.7 0.1-0.6-0.3-0.8-2.1-0.5-4 0.4-3.1 0.1-3.7-2.5-5.2-1.7-1-3-2.1-3-2.5 0-0.5-1-0.8-2.3-0.8-1.2 0-2.8-0.5-3.5-1.2-0.7-0.7-1.2-2.2-1.2-3.3q0-2-0.8-0.7c-0.4 0.8-1.7 1.1-3.2 0.7-1.5-0.4-2.5-1.3-2.5-2.4 0-1 0.9-3.5 2-5.5zm44.4 2.5c3.4 0.1 4 0.5 3.7 2.2-0.2 1.1-1 1.9-2 1.7-0.9-0.1-1.6 0.2-1.6 0.8 0 0.5-0.7 1.2-1.5 1.5-0.8 0.2-2.4 0-3.5-0.5-1.8-1-1.9-1.2-0.5-3.4 1.1-1.9 2.2-2.3 5.4-2.3zm11.7 10.7c0.2 0 1.2 0.2 2.1 0.6 1 0.3 1.7 1.2 1.5 2-0.1 0.7-1.1 1.8-2.2 2.4q-2 1-2.5 0c-0.3-0.6-0.3-1.9 0.1-3 0.3-1.1 0.7-2 1-2zm-107.1 19.3c0.6 0.2 0.9 2.4 0.7 5-0.2 4.3 0 4.7 2.1 4.7 1.3 0 2.8-0.6 3.5-1.3 0.9-1 1.3-0.9 1.7 0.5q0.5 1.8 2.5 1.3c1.2-0.4 2-1.4 2.1-5l2.2 2.5c1.2 1.3 3.4 2.6 4.9 2.7 2.2 0.2 3.1-0.4 5.6-5.2l0.3 3.8c0.2 2.1 0.1 4-0.4 4.2-0.4 0.3-0.7 1.6-0.7 3 0 2.1 0.5 2.5 3 2.5 2.5 0 3.1-0.5 3.7-3.1 0.5-1.7 1.4-3 2.3-3 1 0.1 1.4 1 1.2 3.1-0.2 2.4 0.2 3 1.8 3 1.1 0 1.8-0.4 1.6-0.8-0.2-0.4 0.2-1.3 1-2 1.2-1 1.4-0.8 1.6 1 0.2 1.8 1.1 2.4 4.3 2.9 3 0.4 3.3 0.6 1.2 0.7-1.6 0.1-3.1 1-3.7 2.2-0.7 1.4-0.6 2.2 0.2 2.8 0.7 0.5 2.4 0.6 3.8 0.2 1.8-0.5 2.6-1.4 2.8-3.6 0.2-1.6 0.8-3.4 1.3-3.9q0.9-1 1 0.5c0.1 0.8 0.1 2.5 0 3.7-0.1 1.5 0.6 2.5 2.1 2.9 2.3 0.7 2.3 0.7-0.2 1.3-1.9 0.5-2.5 1.3-2.5 3.3 0 1.5-0.4 3.1-1 3.7-0.6 0.6-4.5 1.4-16.4 2.6l-0.7-3c-0.4-1.7-1.2-3.4-1.8-3.8-0.6-0.4-1.9-0.7-2.9-0.7-0.9 0-2.1 1-2.6 2.2-0.9 2.1-1 2.1-1 0.3 0-1.1-0.4-2.4-0.8-2.9-0.4-0.4-0.8-2.2-0.8-4 0-2.9-0.2-3.1-3.4-3.1-2.4 0-3.5 0.5-3.8 1.7-0.1 1 0.3 2.3 1 3 0.7 0.7 1.2 1.7 1.1 2.3 0 0.5-0.4 1.7-0.7 2.7-0.7 1.6-0.8 1.6-2.5-0.2-0.9-1.1-2.5-2-3.5-2-0.9 0-1.9-0.7-2.2-1.5-0.4-1.2 0.1-1.4 2-1 2.2 0.4 2.5 0.2 2.1-2.3-0.2-1.5-0.4-4.4-0.5-6.5-0.1-3.3-0.4-3.7-2.4-3.5-1.6 0.2-2.2 0.9-2.3 2.8-0.1 1.3-0.2 3.5-0.3 4.7 0 1.2-0.4 2.3-0.9 2.3-0.4 0-0.8-1.1-0.9-2.3-0.2-1.2-0.3-3.7-0.3-5.5 0-2.4-0.5-3.3-1.8-3.4-0.9-0.1-2.5-0.1-3.5 0-1.4 0.1-1.7-0.6-1.7-4.1 0-2.3-0.5-4.8-1.2-5.5-1.1-1.1-1-1.5 0.2-2.3 0.8-0.5 1.9-0.8 2.5-0.6z"/>
		<path id="Path 19" class="s2" d="m38.3 136c1.2 0 2.8 0.4 3.5 0.8 0.8 0.4 1.4 1.1 1.5 1.5 0.1 0.5-0.6 1.3-1.5 1.8-1.2 0.6-2.6 0.5-4.2-0.4-1.4-0.6-2.2-1.8-1.9-2.5 0.2-0.6 1.4-1.2 2.6-1.2zm191 192.7c0.4 0.4 0 2.5-1 4.6-1.1 2.2-2.5 3.7-3.5 3.7-1 0-2.1-0.5-2.5-1.1-0.5-0.7-0.1-1.5 1-2 0.9-0.5 1.7-1.6 1.7-2.4 0-0.8 0.4-1.3 1-1 0.6 0.3 1.3-0.2 1.8-1 0.4-0.9 1.1-1.2 1.5-0.8z"/>
		<path id="Path 20" class="s3" d="m62 7c0.5 0 1.2 0.7 1.5 1.5 0.3 0.8 0.5 2.3 0.5 3.3 0 1.2-0.2 1.4-0.8 0.4-0.4-0.8-1-1.3-1.4-1.3-0.5 0.1-0.8-0.1-0.8-0.4 0-0.3 0-1.2 0-2 0-0.8 0.5-1.5 1-1.5zm-2.9 99.9c1.2 0.3 2.3 0.9 2.5 1.3 0.2 0.5 1.5 0.8 2.9 0.8 1.4 0 2.5 0.4 2.5 1 0 0.5-1.1 0.8-2.5 0.5-1.4-0.3-3.1-0.2-3.8 0.2-0.6 0.4-2 0.7-2.9 0.8-1.1 0-1.9-0.8-2-2.1-0.1-1.1 0.2-2.3 0.5-2.6 0.4-0.3 1.6-0.3 2.8 0.1zm51.5 7.9c0.8 0.4 1.3 1.3 1 1.9-0.3 0.7-0.6 2-0.6 2.8 0 0.8-0.3 1.5-0.8 1.5-0.4 0-0.8-1.5-0.9-3.4-0.1-2.8 0.1-3.3 1.3-2.8zm-64.3 100.7c0.7 0.2 1.5 1 1.9 1.7 0.3 0.7 0 3.8-0.7 6.8-0.7 3-1.9 6.7-2.6 8.2-0.8 1.5-1.9 2.4-2.4 2-0.6-0.4-3.7-1.1-7-1.7-4.7-0.8-6.1-1.4-6.4-3-0.2-1.1 0-1.7 0.5-1.3 0.5 0.4 2.2 0.3 3.9-0.2 2-0.6 3.4-0.5 4.3 0.3 1.1 0.9 1.9 0.6 3.8-1.6 1.3-1.5 2.4-3.7 2.4-5 0-1.2 0.3-3.2 0.5-4.4 0.3-1.2 1.1-2 1.8-1.8z"/>
		<path id="Path 21" class="s4" d="m80.3 112c0.4 0 0.7 0.3 0.7 0.8 0 0.4-0.4 1.2-0.8 1.7-0.4 0.6-1.9 1.2-3.4 1.3-1.6 0.1-2.8-0.3-2.8-0.8 0-0.5 0.3-0.8 0.8-0.5 0.4 0.2 1.6-0.2 2.7-1 1.1-0.8 2.3-1.5 2.8-1.5zm36.2 127c0.8 0 1.5 0.7 1.5 1.5 0 0.8-1.1 1.7-2.5 2-1.4 0.3-2.5 0.9-2.5 1.5 0 0.6-0.7 1-1.5 1-0.8 0-1.5-0.2-1.5-0.5 0-0.3 0.5-1.4 1-2.5 0.6-1.1 1.6-1.8 2.5-1.5 0.8 0.3 1.5 0.1 1.5-0.5 0-0.6 0.7-1 1.5-1zm73.3 28c0.6 0 1.4 1 1.6 2.3 0.3 1.2 0.7 3 1 4 0.5 1.3-0.1 1.8-2.4 2.2-1.7 0.3-4.5 0.7-6.2 1-2.6 0.5-2.9 0.4-1.5-0.5 0.9-0.5 1.5-1.7 1.2-2.5-0.3-0.8 0.7-2.6 2.3-4 1.5-1.4 3.3-2.5 4-2.5z"/>
		<path id="Path 22" class="s5" d="m41.7 157.4c0.7 0.3 2 0.6 2.8 0.6 1.1 0 1.5 1.1 1.5 4 0 2.2-0.5 4-1 4-0.5 0-1 0.7-1 1.5 0 1.1-1.2 1.5-4.5 1.5-2.5 0-5.2 0.3-6.1 0.7-1.3 0.7-1.4 0.4-0.8-1.1 0.7-1.5 0.6-1.7-0.9-1.2-0.9 0.3-1.7 0.2-1.7-0.4 0-0.6 0.7-1 1.5-1 0.8 0 1.5-0.3 1.5-0.8 0-0.4 1-1.2 2.2-1.9 1.3-0.6 1.7-1.2 1-1.2-0.7-0.1-1-0.8-0.6-1.9 0.3-0.9 1.4-1.6 2.5-1.5 1 0.2 2-0.2 2.1-0.8 0-0.6 0.7-0.8 1.5-0.5zm110.5 152.1l1.4 3c0.8 1.6 1.1 3.4 0.7 3.8-0.5 0.4-1.3 0.2-2-0.5-0.7-0.7-0.9-2.4-0.6-3.8z"/>
		<path id="Path 23" class="s6" d="m173.3 273c0.9 0 1.7 0.7 1.7 1.5 0 0.8 0.8 1.6 1.7 1.7 1 0 2.2 0.2 2.8 0.3 0.6 0.2 1.4 0.3 2 0.4 0.6 0.1-2.3 1.8-6.3 3.7-3.9 1.8-8 3.4-9 3.4-0.9 0-3.2 0.9-5 2-2.6 1.6-3.5 1.8-4.6 0.8-0.8-0.7-1.8-2.4-2.1-3.8-0.5-1.9-0.1-2.9 1.7-4.1 1.2-0.9 4.1-2 6.3-2.4 2.2-0.4 5.1-1.4 6.5-2.1 1.4-0.7 3.3-1.3 4.2-1.4zm29.7 7.1c0.9 0.6 1.5 1.7 1.3 2.3-0.1 0.6-3.9 2.5-8.5 4.3-4.5 1.8-10.5 3.7-13.2 4.3-2.8 0.7-8.5 2.4-12.7 3.8-6.8 2.4-7.8 2.5-9.3 1.2-0.9-0.8-1.6-1.8-1.5-2.2 0-0.5 0.8-1.1 1.7-1.4 1-0.4 3.8-1.6 6.3-2.6 2.5-1.1 5.1-1.7 5.7-1.4 0.7 0.3 1.4 0.2 1.5-0.4 0.2-0.5 3.9-1.7 8.3-2.6 4.4-0.9 8.2-2 8.5-2.4 0.3-0.4 1.5-1.2 2.6-1.9 1.2-0.7 3.1-1 4.3-0.7 1.1 0.4 2.4 0.1 2.7-0.4 0.5-0.8 1.2-0.7 2.3 0.1zm34.6 6.9c0.3 0 1.4 0.9 2.5 2 1.1 1.1 1.6 2.2 1 2.5-0.6 0.3-0.4 1.6 0.5 3.5 0.8 1.6 1.5 3.4 1.5 4 0 0.6-1.4 1-3 1-2.2 0-3.2-0.6-3.9-2.3-0.4-1.2-1.5-2.9-2.4-3.7-1.4-1.4-1.3-1.8 0.9-4.3 1.4-1.5 2.7-2.7 2.9-2.7zm-63.2 13c0.7 0 1.7 0.4 2.3 0.8 0.6 0.4 1.4 1.5 1.7 2.5 0.5 1.3-0.1 2-2.6 3.1-2.4 1.1-3.5 1.2-4.5 0.3-0.7-0.7-1.3-1.7-1.3-2.4 0-0.6 0.7-1.9 1.6-2.7 0.9-0.9 2.2-1.6 2.8-1.6zm100.4 12c0.5 0 1.5 0.4 2.3 0.9 1.3 0.8 1.3 1.1 0 2.6-0.8 0.9-1.8 1.6-2.3 1.5-0.4 0-0.7-1.1-0.7-2.5 0-1.4 0.3-2.5 0.7-2.5z"/>
		<path id="Path 24" class="s7" d="m64.5 8.4c0.6 0.1 1.1 4.8 1.3 10.4 0.2 10.1 0.2 10.2 2.7 10.2 1.8 0 2.5 0.5 2.5 2 0 1.1-0.4 2.8-1 3.8-0.7 1.3-0.3 2.3 1.8 4.3 1.5 1.4 5.6 4.6 9.2 7 3.6 2.3 9.4 5.7 13 7.5 3.6 1.7 8.8 3.7 11.5 4.4 2.8 0.7 5.9 1.9 7 2.7 1.1 0.7 1.4 1.3 0.8 1.3-0.7 0-5.2-1.3-10-2.9-4.9-1.5-11.7-4.3-15.3-6.1-3.6-1.8-8.6-4.8-11.2-6.6-2.7-1.9-5-2.9-5.3-2.4-0.3 0.5-1.2 0.8-2 0.5-1-0.3-1.7 0.4-2.1 2.2-0.3 1.6-0.2 6.2 0.1 10.3 0.4 4.6 0.3 8.5-0.4 10.2-0.6 1.6-1.4 2.6-1.8 2.4-0.5-0.2-0.7-2.9-0.5-6 0.1-4.4-0.1-5.6-1.3-5.6q-1.5 0-0.9-1.8 0.7-1.7 1.3-0.5c0.3 0.6 0.7-1.1 0.9-3.8 0.1-2.8-0.2-4.9-0.8-4.9-0.5 0-1-1.1-1-2.5 0-2-0.4-2.4-2-2-1.1 0.3-2 0.2-2-0.3 0-0.4 0.7-1.5 1.5-2.5 1.3-1.5 1.2-2.1-1-5.5-1.4-2-2.5-4.3-2.5-5 0-0.6 0.9-1.4 2-1.7 1.5-0.4 2-1.4 2.1-4.3 0.1-2 0.1-5.2 0-7 0-1.7 0.2-3.8 0.5-4.5 0.5-0.9 0.9-0.8 1.6 0.3 0.7 1.1 0.9 0.8 0.6-1.2-0.2-1.5 0.2-2.6 0.7-2.4zm202.8 275.9c0.9 0.1 2.2 0.7 2.9 1.4 1.1 1 1 1.5-0.2 2.8-1.4 1.6-1.6 1.5-2.8-0.2-0.7-1-1.3-2.3-1.3-3-0.1-0.6 0.6-1.1 1.4-1zm-35.1 9.7c0.7 0 1.9 0.5 2.6 1.2 0.7 0.7 1.2 2.8 1.2 4.6 0 2.2-0.7 3.6-2.3 4.6-1.3 0.8-2.2 2.3-2.2 3.7 0 1.4-0.6 2.4-1.5 2.5-0.8 0-3 0.5-4.8 1-1.8 0.5-3.2 1.5-3.2 2.2 0 0.6-0.3 1.9-0.8 2.8-0.6 1.4 0 1.6 3.8 1.3 3.8-0.3 4.5-0.7 4.7-2.6 0.2-1.3 0.7-2.3 1.3-2.3 0.6 0 1 1 1 2.3 0.1 1.2-0.6 2.8-1.5 3.5-0.8 0.6-1.9 1-2.5 0.7-0.6-0.3-2.4 0.2-4 1-2.3 1.2-3 2.2-3 4.5 0 2.6 0.3 2.9 2.2 2.4 1.3-0.4 3.1-1.4 4.1-2.3 1.2-1.1 1.8-1.2 1.7-0.3 0 0.6 0.3 2 0.7 3 0.5 1.2 0.4 1.5-0.5 1-0.7-0.5-1.4-0.2-1.7 0.7-0.4 1.1-1 1.3-2.5 0.5-1.6-0.8-2.4-0.6-4 1-1.4 1.4-2.4 1.7-3.3 1-1-0.8-1-1.4 0-3 0.7-1.1 1.3-3.1 1.3-4.5 0-2.1-0.4-2.4-2.3-2-1.2 0.4-3.1 0.7-4.2 0.9-1.3 0.2-2.2 1.3-2.6 3.2-0.7 2.8-0.7 2.8-0.9-4.1l-5.2 0.9c-2.9 0.5-8.4 0.9-12.2 1-4.8 0.1-7-0.3-7.3-1.1-0.2-0.8 0.4-1.1 1.4-0.8 1 0.3 2.6 0.3 3.5 0 1-0.3 1.8-1.2 1.8-2 0-0.8 0.4-1.5 1-1.5 0.6 0 1 0.5 1 1 0 0.6 1.3 1 3 1q3 0 3-1.5c0-0.8-0.6-1.7-1.3-1.9-0.6-0.2-2.8-0.1-4.7 0.1-3.3 0.4-3.4 0.4-1.5-1.1 1.1-0.8 4-1.8 6.5-2.1 2.5-0.4 5.7-0.4 7.2-0.1 1.6 0.3 2.6 1.1 2.3 1.6-0.3 0.6-1.5 1-2.8 1-1.2-0.1-2.8 0.6-3.5 1.5-1 1.2-1 1.6 0 2 0.7 0.3 2.9 0.3 4.8 0.1 1.9-0.3 3.7-0.5 4-0.6 0.3-0.1 2.5-0.2 5-0.3 4.3-0.2 4.5-0.3 4.5-3.2 0-2.8-0.2-3-7-2.6l3-1.4c1.6-0.8 3.6-1.4 4.2-1.5 0.7 0 1.9-0.9 2.5-1.9 0.9-1.3 1.7-1.7 2.3-1 0.6 0.5 1.9 0.6 3 0.3 1.8-0.5 1.9-0.7 0.3-1.7-1.5-1.1-1.5-1.5 0.2-5.2 1-2.2 2-4.8 2.4-5.7 0.3-1 1.1-1.8 1.8-1.8zm-70.8 4.9l0.8 2.1c0.4 1.1 1.1 2 1.5 2 0.5 0 2.3 1.4 4.1 3.2 2.6 2.7 3 3.5 2 4.6q-1.3 1.3-0.3 2.3c0.5 0.5 3.5 1.1 6.5 1.3 3 0.3 6.8 0.5 11.5 0.5l-2.3 2.1c-2 1.8-2.6 1.9-5.8 0.8-3.2-1.2-3.7-1.1-4.5 0.5-0.8 1.5-1.1 1.6-2.7 0.2-0.9-0.9-2.6-1.5-3.7-1.4-1.1 0.1-3.3-0.2-4.9-0.7-1.6-0.5-3.3-1.8-3.9-2.9-0.6-1.1-1-2.6-0.9-3.2 0.1-0.7-0.3-1.5-0.8-1.8-0.6-0.3-1.1-1.6-1.2-3-0.1-1.5 0.8-3.2 2.2-4.5zm63.2 38.1c0.8 0 1.4 0.8 1.4 1.7 0.1 1.1-1.8 2.8-4.5 4.3-3.6 2-4.8 2.2-6.2 1.3-1-0.6-1.6-1.9-1.4-3 0.2-1 0.5-1.9 0.7-2.1 0.3-0.1 1 0.1 1.7 0.5 0.7 0.4 2 0.8 3 1 1 0.1 2.2-0.6 2.8-1.7 0.5-1.1 1.7-2 2.5-2z"/>
		<path id="Path 25" class="s8" d="m102.9 268.3c0.8 0.1 1.6 0.8 1.8 1.4q0.3 1.3-2.5 0.9c-1.5-0.2-2.9-0.4-3.2-0.5-0.3-0.1 0.2-0.6 1-1.1 0.8-0.6 2.1-0.9 2.9-0.7zm87.2 33.7c1.6 0 3.1 0.4 3.4 1 0.3 0.5-0.4 1.2-1.5 1.5-1.1 0.3-3 0.2-4.3-0.1-2-0.6-2.1-0.5-0.7 1 1.1 1.2 1.1 1.7 0.2 1.6-0.6 0-1.5 0.1-2 0.3-0.4 0.1-2.1 1-6.7 3.6l3.2 0.1c1.8 0 3.3 0.3 3.3 0.7 0 0.5-2.3 0.7-5 0.5-3.1-0.1-4.8 0.2-4.5 0.8 0.3 0.6-0.8 1-2.5 1-1.7 0-3.3-0.6-3.6-1.3-0.3-0.6-0.1-1.7 0.5-2.2 0.7-0.7 0.7-1.4-0.2-2.3-0.6-0.7-0.9-1.6-0.4-2 0.4-0.4 1.2-0.3 1.7 0.3q1 1 7.2-0.4c3.5-0.8 6.9-2.1 7.6-2.8 0.7-0.7 2.7-1.3 4.3-1.3z"/>
		<path id="Path 26" class="s9" d="m178.8 271.1c1.2-0.1 2.9 0.6 3.7 1.4 0.8 0.8 1.5 1.7 1.5 2 0 0.3-1 0.9-2.3 1.4-1.2 0.5-3.2 0.7-4.4 0.3-1.3-0.4-2.5-1.5-2.8-2.5-0.3-0.9 0.1-1.9 0.7-2.1 0.7-0.3 2.3-0.5 3.5-0.5zm54 46.8c0.2 0.6 1 1.1 1.8 1.1q1.5 0 0.7 1.6c-0.4 0.8-1.3 1.3-2 1-0.6-0.3-1.5 0-1.8 0.6-0.5 1-0.8 0.9-1.5-0.2-0.5-1-0.2-2.2 0.9-3.3 0.9-1 1.8-1.4 1.9-0.8z"/>
		<path id="Path 27" class="s10" d="m223.9 119c0.3-0.1 1.1 0.5 1.8 1.2 0.9 1 0.7 1.9-0.7 3.8-1.9 2.5-1.9 2.5-3.4 0.5-1.3-1.8-1.3-2.2 0.1-3.8 0.9-0.9 1.9-1.7 2.2-1.7zm-21.9 186.5c1.7 0.8 3.7 2.5 4.5 3.7 0.8 1.3 1.5 3.1 1.5 4 0 1.5-0.6 1.7-3.8 1.2-2-0.3-5.7 0-8.2 0.6-2.5 0.7-6.1 1.4-11.5 2.1l2.5-1.5c1.4-0.8 4.6-1.9 7.3-2.3 2.6-0.4 4.9-1.4 5.2-2.1 0.3-0.6 0.9-1 1.5-0.7 0.6 0.3 1 0 1-0.5 0-0.6-0.4-1-1-1-0.6 0-0.8-0.5-0.5-1 0.3-0.6 0.1-1-0.5-1-0.6 0-1-0.7-1-1.5 0.1-1.4 0.4-1.4 3 0z"/>
		<path id="Path 28" class="s11" d="m246.3 117c3.1 0 5.7 0.3 5.7 0.8 0 0.4-2.4 0.6-5.3 0.5-2.8-0.1-5.4-0.5-5.7-0.8-0.3-0.3 2.1-0.5 5.2-0.5zm-51.6 185.3c0.8 0.4 2.3 0.7 3.4 0.7 1.5 0 1.9 0.5 1.5 2-0.3 1.1-0.1 2 0.5 2 0.6 0 0.8 0.4 0.5 1-0.3 0.6-0.1 1 0.5 1 0.6 0 1 0.4 1 1 0 0.6-0.4 0.8-1 0.5-0.6-0.3-1.3 0.1-1.8 0.8-0.4 0.7-3.6 1.8-7.2 2.5-3.6 0.6-8.8 1.1-11.5 1.1q-5-0.1-5-1.4c0-0.9 1.5-1.2 4.7-1.1 2.7 0 4.8-0.2 4.8-0.7 0-0.4-1.5-0.7-6.5-0.8l3-1.7c1.6-0.9 3.3-1.8 3.7-1.9 0.5-0.2 1.4-0.3 2-0.3 0.9 0.1 0.9-0.4-0.2-1.6-1.4-1.5-1.3-1.6 0.7-1 1.3 0.3 3.2 0.4 4.3 0.1 1.1-0.3 1.8-1 1.6-1.7-0.2-0.7 0.2-0.9 1-0.5z"/>
		<path id="Path 29" class="s13" d="m117.6 62.1c0.8 1 1.2 2.4 0.9 2.9-0.3 0.5 0.1 2.1 0.8 3.5q1.2 2.5 0.2 3.6c-0.6 0.6-2.9 0.8-5.7 0.5-4.2-0.5-4.8-0.9-5-3.1-0.2-1.6 0.2-2.5 1.2-2.6q1.5-0.1 0.3-0.5c-0.7-0.2-1.3-1.3-1.3-2.4 0-1.4 0.7-2 2.3-2 1.2 0 2.8-0.4 3.6-0.9 1-0.7 1.8-0.4 2.7 1zm27.1 93.5c0.9 0.7 1.5 1.7 1.4 2.3 0 0.6-0.5 2-1.1 3.1-0.8 1.6-1.4 1.8-3 1-1.1-0.6-2.1-2-2.2-3.1-0.2-1.2 0.6-2.7 1.5-3.4 1.5-1 2.2-1 3.4 0.1zm-30.6 8.4c0.5 0 1.7 0.7 2.7 1.6 1.3 1.3 1.5 2 0.6 3.3-0.6 0.9-2.2 1.6-3.5 1.6-1.5 0-2.5-0.6-2.6-1.7-0.2-1 0.2-2.5 0.8-3.3 0.6-0.8 1.5-1.5 2-1.5zm17.2 3c0.7 0 2 0.8 2.9 1.8 1.3 1.2 1.5 2.2 0.8 3.5-0.6 0.9-1.8 1.7-2.7 1.7-1 0.1-2.4-0.6-3-1.5-0.9-1.1-1-2.1-0.3-3.5 0.6-1.1 1.6-2 2.3-2zm11.5 9c0.9 0 2.3 0.5 3 1.2 0.7 0.7 1.2 2.3 1.2 3.6 0 1.4-0.7 2.4-2 2.7-1.1 0.3-2.7-0.1-3.5-0.7-1-0.8-1.4-2.3-1.1-3.8 0.2-1.4 0.5-2.6 0.5-2.7 0.1-0.2 0.9-0.3 1.9-0.3zm-37.7 1c0.5 0 1.6 0.7 2.4 1.5 0.8 0.8 1.3 2.4 1 3.5q-0.5 2-3 2-2.5 0-3-2c-0.3-1.1 0-2.7 0.6-3.5 0.6-0.8 1.5-1.5 2-1.5zm17.9 5c0.3-0.1 1.3 0.8 2.3 2 1.3 1.5 1.5 2.5 0.7 4-0.5 1.1-1.6 2-2.2 2-0.7 0-1.9-0.5-2.6-1.2-0.7-0.7-1.3-2-1.4-2.9-0.1-0.8 0.4-2 1.2-2.7 0.8-0.7 1.6-1.2 2-1.2zm12.2 11c0.7 0 1.9 0.5 2.6 1.2 0.7 0.7 1.2 2.3 1.2 3.6 0 1.4-0.7 2.4-2 2.7-1.2 0.3-2.6-0.2-3.4-1.2-0.8-1-1.3-2-1.2-2.3 0.2-0.3 0.6-1.3 0.9-2.2 0.4-1 1.2-1.8 1.9-1.8zm129.5 91c0.4 0 1.7 2 3 4.5 1.3 2.5 2.3 4.7 2.3 5 0 0.3-1.1 0.3-2.5 0-2-0.4-2.6 0-3.1 1.8-0.5 1.9-0.7 2-2 0.7-0.9-0.8-1.7-3.2-2-5.2-0.3-3.2-0.1-3.9 1.6-4.3 1.1-0.3 2-0.9 2-1.5 0-0.6 0.3-1 0.7-1zm-62.8 6.1c0.8 0.8 3 1.4 5 1.5 2 0.1 3.9-0.4 4.3-1 0.5-0.7 0.8-0.3 0.8 0.9 0 1.1 0.5 2.6 1.2 3.3 0.7 0.7 2.3 1.2 3.6 1.2 1.2 0 2.2 0.3 2.2 0.8 0 0.4 1.3 1.5 3 2.5 2.1 1.2 2.9 2.3 2.7 4-0.1 1.2-1 3.4-2 5-1 1.6-3 3-4.9 3.4-1.8 0.3-4.1 1.5-5 2.5-1 1-2.2 1.6-2.8 1.3-0.6-0.3-1.7-2.1-2.5-4-0.8-1.9-2.7-4.3-4.2-5.2-1.6-1-3-2.1-3.3-2.5-0.3-0.4-3.2-1-6.5-1.4-4.6-0.5-6.3-0.3-7.5 0.8-0.8 0.8-3.1 1.8-5 2.3-2 0.4-3.2 0.4-2.8-0.1 0.4-0.5 0.3-1.8-0.2-2.9-0.5-1.1-0.6-2.4-0.2-2.8 0.4-0.5 0.8-1.3 1-1.8 0.1-0.5 0.1-1.3 0-1.9-0.1-0.5 1.8-1.4 4.3-2 2.4-0.6 5.3-1.5 6.4-2.1 1.5-0.8 2.2-0.8 2.7 0.3 0.5 1 0.9 1 2 0.1 0.7-0.7 2.3-1 3.6-0.7 1.5 0.3 2.3-0.1 2.4-1.2 0.2-1.4 0.5-1.4 1.7-0.3z"/>
		<path id="Path 30" class="s17" d="m240.8 285c1.5 0 4.4 0.9 6.4 2 2.1 1.1 4.5 1.8 5.3 1.5 0.8-0.3 1.5-0.9 1.5-1.5 0-0.6 0.7-0.8 1.5-0.5 0.8 0.3 1.8-0.1 2.1-0.8q0.6-1.2 1.5-0.2c0.5 0.6 1 2.6 1.2 4.6 0.1 2.3 1.1 4.7 2.7 6.3 1.4 1.4 2.7 2.4 3 2.1 0.3-0.3 1 0.3 1.7 1.3 0.7 1 0.8 1.9 0.2 2.2-0.6 0.3-0.5 1.6 0.3 3.4 1 2.3 1 3 0 3.3-0.6 0.2-1 1-0.7 1.8 0.3 0.8 0.9 1.3 1.5 1 0.5-0.3 2 0.7 3.2 2.3 1.3 1.5 3.7 3.3 5.3 4 2 0.8 3.3 0.9 4 0.3 0.5-0.5 1.6-0.8 2.2-0.5 0.7 0.2 1.1 1.3 0.8 2.4-0.3 1.1-1 2-1.5 2-0.6 0-1 0.7-1 1.5 0 0.8-1 2.5-2.3 3.7-1.2 1.3-3 2.2-4 2-0.9-0.1-1.7 0.4-1.7 1.3q0 1.5-2 1c-1.1-0.3-2.6-0.1-3.3 0.5-0.6 0.5-3.5 0.9-6.2 0.8-2.8-0.2-5.5 0.1-6 0.4-0.6 0.4-2.6 0.1-4.5-0.5-1.9-0.7-4.1-1.6-4.8-2-0.6-0.4-3.2-0.5-5.7-0.2-2.7 0.3-4.5 0.1-4.5-0.5 0-0.6-1.3-0.7-3.3-0.4-3.1 0.6-3.2 0.5-4.5-3.7-0.7-2.4-1-4.6-0.7-4.9 0.3-0.3 1 0.2 1.4 1 0.7 1.1 1 1.2 1.5 0.3 0.3-0.7 1.2-1 1.8-0.7 0.7 0.3 1.6-0.2 2-1q0.8-1.6-0.7-1.6c-0.8 0-1.8-1-2.1-2.2-0.3-1.3-0.6-4.3-0.7-6.7-0.2-3.6 0.2-4.6 2-5.7 1.3-0.8 2.3-2.2 2.3-3.1 0-1.4 0.8-1.7 3.5-1.5 1.9 0.1 3.5-0.2 3.5-0.8 0-0.6-0.7-2.4-1.5-4-0.9-1.9-1.1-3.2-0.5-3.5 0.6-0.3 0.1-1.4-1-2.5-1.1-1.1-2-2.4-2-3 0-0.6 1.2-1 2.7-1z"/>
		<path id="Path 31" class="s14" d="m364.1 122c0.5 0 1 0.6 1.2 1.3 0.2 0.6 0.2 2.2 0 3.5-0.2 1.2-1 2.2-1.8 2.2-0.8 0-1.5-0.7-1.5-1.5 0-0.8 0.4-1.5 1-1.5 0.5 0 0.8-0.9 0.6-2-0.2-1.1 0-2 0.5-2zm-331.1 88c1.4 0 2.6 1.3 4 4.5 1.1 2.5 2 5.6 2 7 0 1.4-0.5 2.5-1 2.5-0.5 0-1-0.4-1-1 0-0.6-1.1-2.3-2.5-4-1.4-1.7-2.3-3.4-2-4 0.3-0.6 0-1.2-0.5-1.5-0.6-0.3-1-1.2-1-2 0-0.8 0.9-1.5 2-1.5zm-4.8 16.1c1.8 0 4.2 0.5 5.3 1 1.9 0.9 1.9 0.9 0 1.1-1.1 0-2.6 0-3.3 0-0.6-0.1-1.2 0.5-1.2 1.3 0 1.2-0.4 1.3-2 0.5-1.1-0.6-2-1.7-2-2.5 0-1 1-1.5 3.3-1.4zm366.9 63c1.6-0.1 3.9 0.3 5.3 0.9 1.4 0.6 2.8 1.7 3.3 2.5 0.4 0.9 0.3 2-0.3 2.6-0.7 0.6-2.7 0.4-6-0.7-2.7-0.9-5.6-2.3-6.2-3-1-1.1-1-1.5 0-1.8 0.6-0.3 2.4-0.5 4-0.5zm-6.4 5.6c2 0.8 4.6 1.9 5.9 2.4 1.2 0.5 2.7 1.9 3.3 3.1 0.6 1.3 0.8 2.9 0.5 3.5-0.4 0.8-1.3 1-2.6 0.5-1.2-0.4-2.3-1.5-2.5-2.5-0.3-0.9-1.1-1.5-1.7-1.2-0.7 0.3-2.2-0.3-3.3-1.5-1.1-1.1-3-2.1-4.3-2-2.2 0-2.2-0.1-0.6-1.9 1.6-1.7 2.1-1.8 5.3-0.4zm-34.2 8.4c0.1-0.1-0.1 1.1-0.4 2.6-0.3 1.6-1 3.2-1.4 3.8-0.6 0.6-1-0.2-1.1-2.2-0.1-2 0.3-3.3 1.3-3.6 0.7-0.3 1.5-0.6 1.6-0.6zm-70.8 0.9c0.4 0 0.8 1 0.9 2.2 0 1.3-0.7 3.6-1.6 5.1-1.2 2-2.3 2.7-3.7 2.3-1.1-0.3-2.8-0.7-3.7-1-1.2-0.4-1.9 0-2 1.1-0.3 1.4-0.5 1.4-1.4 0.2-0.8-1-0.8-2.5 0.9-8.4l1.3 3c0.7 1.6 1.3 2.6 1.3 2 0-0.6 1.6-1.9 3.6-3 1.9-1.1 3.5-2.3 3.5-2.8 0-0.4 0.4-0.7 0.9-0.7z"/>
		<path id="Path 32" class="s0" d="m181.2 325.1c0.4 0 0.7 1.4 0.5 3.1-0.2 2.9-0.6 3.3-3.4 3.5-3 0.3-3.3 0.1-3.3-2.7 0-2.5 0.4-3.1 2.8-3.4 1.5-0.1 3-0.4 3.4-0.5zm4 8.9c1.3 0 2.9 0.4 3.6 0.8 0.8 0.4 1.2 1.6 1 2.7-0.2 1.5-1.1 2-3.3 2-2.5 0-3.1-0.4-3.3-2.8-0.3-2.3 0-2.7 2-2.7z"/>
	</g>
</svg>